<svg width="18" height="18" viewBox="0 0 18 18" fill="none" xmlns="http://www.w3.org/2000/svg">
<path d="M4.30489 12C4.38739 11.6325 4.23739 11.1075 3.97489 10.845L2.15239 9.0225C1.58239 8.4525 1.35739 7.845 1.52239 7.32C1.69489 6.795 2.22739 6.435 3.02239 6.3L5.36239 5.91C5.69989 5.85 6.11239 5.55 6.26989 5.2425L7.55989 2.655C7.93489 1.9125 8.44489 1.5 8.99989 1.5C9.55489 1.5 10.0649 1.9125 10.4399 2.655L11.7299 5.2425C11.8274 5.4375 12.0299 5.625 12.2474 5.7525L4.16989 13.83C4.06489 13.935 3.88489 13.8375 3.91489 13.6875L4.30489 12Z" fill="#FFDB47"/>
<path d="M14.025 10.845C13.755 11.115 13.605 11.6325 13.695 12L14.2125 14.2575C14.43 15.195 14.295 15.9 13.83 16.2375C13.6425 16.3725 13.4175 16.44 13.155 16.44C12.7725 16.44 12.3225 16.2975 11.8275 16.005L9.62998 14.7C9.28498 14.4975 8.71498 14.4975 8.36998 14.7L6.17248 16.005C5.33998 16.4925 4.62748 16.575 4.16998 16.2375C3.99748 16.11 3.86998 15.9375 3.78748 15.7125L12.9075 6.59248C13.2525 6.24748 13.74 6.08998 14.2125 6.17248L14.97 6.29998C15.765 6.43498 16.2975 6.79498 16.47 7.31998C16.635 7.84498 16.41 8.45248 15.84 9.02248L14.025 10.845Z" fill="#FFDB47"/>
</svg>
