<svg xmlns="http://www.w3.org/2000/svg" viewBox="0 0 57.5 95.57"><g id="Layer_2" data-name="Layer 2"><g id="OBJECTS"><path d="M11.41,92.89l.44-8.26c0-.38-.58-.38-.6,0l-.44,8.26c0,.38.58.38.6,0Z"/><path d="M46.37,92.89l-.29-8.26c0-.39-.62-.39-.6,0l.29,8.26c0,.39.62.39.6,0Z"/><path d="M29.31,71c5.47,0,8.61-1.94,10.56-4.51a19.78,19.78,0,0,0-2.56-.26l-16,.13s-1.08.09-2.64.37C20.13,68.59,23.17,71,29.31,71Z" style="fill:#2c2945"/><path d="M29,83c-10.74,0-18.39-3.39-22.42-5.89-.36,2.19-.72,4.56-1,6.69,3.74,2.52,11.73,6.41,23.28,6.43a39.8,39.8,0,0,0,23-7.26l-.94-6.47A39.79,39.79,0,0,1,29,83Z" style="fill:#3793b5"/><path d="M47.05,69.52a15.21,15.21,0,0,0-7.18-3.07C37.92,69,34.78,71,29.31,71c-6.14,0-9.18-2.37-10.64-4.27a23,23,0,0,0-8.44,3.09c3.46,3,9.48,6.39,18.81,6.41A26.9,26.9,0,0,0,47.05,69.52Z" style="fill:#3793b5"/><path d="M5.57,83.77c-.58,3.75-1,6.78-1,6.78S29.72,102,52.91,90.38l-1.09-7.44a39.8,39.8,0,0,1-23,7.26C17.3,90.18,9.31,86.29,5.57,83.77Z" style="fill:#fad8b4"/><path d="M50.88,76.47,50.5,73.9a11.65,11.65,0,0,0-3.45-4.38,26.9,26.9,0,0,1-18,6.67c-9.33,0-15.35-3.39-18.81-6.41A6.8,6.8,0,0,0,7.09,74.2c-.15.89-.31,1.87-.47,2.88,4,2.5,11.68,5.86,22.42,5.89A39.79,39.79,0,0,0,50.88,76.47Z" style="fill:#fad8b4"/><path d="M12,35.33a6.14,6.14,0,0,1-6,6.29A6.28,6.28,0,0,1,6,29.08,6.14,6.14,0,0,1,12,35.33Z" style="fill:#f9b28f"/><path d="M57.5,35.18a6,6,0,1,1-6-6.26A6.14,6.14,0,0,1,57.5,35.18Z" style="fill:#f9b28f"/><path d="M21.31,66.32s2.09,2.58,7.76,2.56,8.24-2.69,8.24-2.69a16,16,0,0,1-3.33-5,29.76,29.76,0,0,1-10.6,2.46A8.65,8.65,0,0,1,21.31,66.32Z" style="fill:#fcceb6"/><path d="M25.1,57a18.39,18.39,0,0,1-1.72,6.6A29.76,29.76,0,0,0,34,61.17a13.63,13.63,0,0,1-1.06-4.31S28.42,57.93,25.1,57Z" style="fill:#f9b28f"/><path d="M1.78,35.56h0A.21.21,0,0,0,2,35.48a3,3,0,0,1,2.18-1.41c1.22-.11,1.82.7,2.4,1.62a.31.31,0,0,0,.57-.15A2.73,2.73,0,0,0,4.5,33.25a3.21,3.21,0,0,0-2,.71c-.12.1-.88,1.28-.72,1.26-.17,0-.17.31,0,.34Z"/><path d="M3.88,37.1c.45-.2.85-.51,1.28-.75a3.12,3.12,0,0,1,1.55-.17.39.39,0,0,0,0-.78,3.67,3.67,0,0,0-1.77.23,6.55,6.55,0,0,0-.81.57c-.23.2-.25.45-.45.65s0,.33.2.25Z"/><path d="M55.29,35c.17,0-.59-1.15-.71-1.25a3.19,3.19,0,0,0-2-.7,2.72,2.72,0,0,0-2.67,2.3.31.31,0,0,0,.57.16c.57-.92,1.17-1.74,2.39-1.64a3,3,0,0,1,2.19,1.39.19.19,0,0,0,.2.09h0c.17,0,.18-.32,0-.34Z"/><path d="M53.41,36.68c-.2-.19-.22-.44-.46-.64a4.5,4.5,0,0,0-.81-.56,3.54,3.54,0,0,0-1.77-.23.39.39,0,0,0,0,.78,3.24,3.24,0,0,1,1.55.16c.43.24.84.55,1.29.75.16.07.34-.12.2-.26Z"/><path d="M11.41,92.89l.44-8.26c0-.38-.58-.38-.6,0l-.44,8.26c0,.38.58.38.6,0Z"/><path d="M46.37,92.89l-.29-8.26c0-.39-.62-.39-.6,0l.29,8.26c0,.39.62.39.6,0Z"/><path d="M14.76,38.13c3.58,4.92,6.16,6.83,9.83,5.33s4.92-1.71,6.75-1.84c2.25-.15,3.72,1.68,6,2.18s4-4.49,7-7.58c2.75-2.83,3.87-3.55,5.85-3.27C50,20,46,6.39,28.48,6.46,13.11,6.53,7.2,19.86,7,32.69A15.71,15.71,0,0,1,14.76,38.13Z" style="fill:#fcceb6"/><path d="M49.39,40.05a26,26,0,0,0,.81-6.53c0-.19,0-.38,0-.57-2-.28-3.1.44-5.85,3.27-3,3.09-4.78,8.08-7,7.58s-3.72-2.33-6-2.18c-1.83.13-3.08.34-6.75,1.84s-6.25-.41-9.83-5.33A15.71,15.71,0,0,0,7,32.69c0,.32,0,.65,0,1,0,9.61,5.26,17.86,12.74,21.58C31.45,55.55,42.22,49.18,49.39,40.05Z" style="fill:#feb01b"/><path d="M19.69,55.24a20.06,20.06,0,0,0,9,2.1c9.88,0,18.18-7.34,20.73-17.29C42.22,49.18,31.45,55.55,19.69,55.24Z" style="fill:#f79c0b"/><path d="M20.71,33.9a1.51,1.51,0,0,1-1.3,1.67,1.72,1.72,0,0,1,0-3.34A1.52,1.52,0,0,1,20.71,33.9Z"/><path d="M41.22,33.9a1.51,1.51,0,0,1-1.3,1.67,1.72,1.72,0,0,1,0-3.34A1.52,1.52,0,0,1,41.22,33.9Z"/><path d="M12.17,18.42c.06-.42.1-.74.13-.94H12C12.05,17.67,12.09,18,12.17,18.42Z" style="fill:#feb01b"/><path d="M12,17.46h0C12,17.23,12,17.17,12,17.46Z" style="fill:#feb01b"/><path d="M51.83,8.71C55.33,4.38,47.34-.54,32,.05S9,6.46,9,6.46,8.76,1.3,7,2.05,6.71,9,6.71,9s-2.87-4.33-4-2.5S6,11.63,6,11.63C.91,16.38,3.25,29.78,3.25,29.78,4.91,29.68,7,32.69,7,32.69c2.9-.76,4.67-10.78,5.21-14.27-.08-.4-.12-.75-.14-1h0c0-.29,0-.23,0,0h.27c0-.17,0-.27,0-.27a3.82,3.82,0,0,0,.48.29c13.5.79,27.78-2.1,39.05-8.75Z" style="fill:#feb01b"/><path d="M12.82,17.5c7.16,4.09,31.25,1.63,31.35,2.13.7,3.55,4.34,13.39,6,13.32a5.63,5.63,0,0,1,2.92-3.79c.69-5.64-1.61-13.7-1.61-13.7,3.2-3.72.7-6.39.37-6.71C40.6,15.4,26.32,18.29,12.82,17.5Z" style="fill:#f79c0b"/><path d="M28.65,44.33A2.45,2.45,0,0,0,32,47a.33.33,0,0,0,0-.55c-.56-.34-1.31,0-1.9-.35s-.76-1.24-1.09-1.81a.2.2,0,0,0-.36,0Z"/><path d="M32,39.9c1.17-.79,4.09-4.47,1.54-5.38-2-.72-2.63,3.55-4.48-.41-.47-1-.06-3.28,0-4.4,0-1.39-.24-4.25.48-5.42a.32.32,0,0,0-.44-.44c-.78.5-.69,2.92-.74,3.66-.15,2.32-.52,5.45.11,7.71.25.9.45,1.74,1.49,1.82.66,0,.92-.62,1.47-.78.79-.94,1.49-.65,2.1.86a6.23,6.23,0,0,1-1.75,2.44c-.18.17.05.48.26.34Z"/><path d="M11.59,29.08s4.47-5.7,7.82-6.53c1.66-.62,1.88.54,1.66,1a1.18,1.18,0,0,1-.36,1.81s-.3.94-1.86,1.22S10.77,30.63,11.59,29.08Z" style="fill:#feb01b"/><path d="M46.07,29.08s-4.47-5.7-7.82-6.53c-1.66-.62-1.88.54-1.66,1A1.18,1.18,0,0,0,37,25.37s.3.94,1.86,1.22S46.89,30.63,46.07,29.08Z" style="fill:#feb01b"/></g></g></svg>