<svg xmlns="http://www.w3.org/2000/svg" viewBox="0 0 57.5 95.95"><g id="Layer_2" data-name="Layer 2"><g id="OBJECTS"><path d="M11.41,93.27,11.85,85c0-.39-.58-.39-.6,0l-.44,8.25c0,.39.58.39.6,0Z"/><path d="M46.38,93.28,46.08,85c0-.38-.61-.38-.6,0l.3,8.27c0,.38.61.38.6,0Z"/><path d="M25,78.37l.64,17.44a59.89,59.89,0,0,0,6.86.08l.62-17A44.37,44.37,0,0,1,25,78.37Z" style="fill:#2c2945"/><path d="M41.29,67.14c-.45-.11-.92-.22-1.42-.3a21.63,21.63,0,0,0-2.56-.27l-16,.14s-1.08.09-2.64.37c-.54.1-1.15.23-1.79.38,2.18,5,8,9.45,8,9.45L25,78.37a44.37,44.37,0,0,0,8.12.49l.07-2S39.23,72.29,41.29,67.14Z" style="fill:#f9b28f"/><path d="M25.13,83.25A31.36,31.36,0,0,1,6.92,75.61c-.1.6-.2,1.21-.3,1.86-.19,1.13-.37,2.31-.56,3.49a32.54,32.54,0,0,0,19.18,5.36Z" style="fill:#e95f33"/><path d="M25.37,89.8l-.13-3.48A32.54,32.54,0,0,1,6.06,81c-.17,1.09-.34,2.17-.49,3.2-.08.51-.16,1-.23,1.49A41.53,41.53,0,0,0,25.37,89.8Z" style="fill:#fad8b4"/><path d="M5.34,85.65l-.8,5.28a67.23,67.23,0,0,0,21.05,4.88l-.22-6A41.53,41.53,0,0,1,5.34,85.65Z" style="fill:#3793b5"/><path d="M24.9,76.91s-5.84-4.43-8-9.45a20.45,20.45,0,0,0-6.65,2.7,6.84,6.84,0,0,0-3.14,4.43c-.06.32-.11.67-.17,1a31.36,31.36,0,0,0,18.21,7.64Z" style="fill:#3793b5"/><path d="M32.71,88.94l-.26,7a50.23,50.23,0,0,0,20.46-5.12l-1.08-7.44A36.82,36.82,0,0,1,32.71,88.94Z" style="fill:#3793b5"/><path d="M51.19,79A53.5,53.5,0,0,1,32.8,86.19l-.09,2.75a36.82,36.82,0,0,0,19.12-5.61h0Z" style="fill:#fad8b4"/><path d="M50.88,76.86l-.26-1.79c-4.73,4.64-11.23,7.21-17.71,8.31l-.11,2.81A53.5,53.5,0,0,0,51.19,79Z" style="fill:#e95f33"/><path d="M50.5,74.28a11.66,11.66,0,0,0-3.45-4.37,14.6,14.6,0,0,0-5.76-2.77c-2.06,5.15-8.15,9.77-8.15,9.77l-.23,6.47c6.48-1.1,13-3.67,17.71-8.31Z" style="fill:#3793b5"/><path d="M12,35.72A6.14,6.14,0,0,1,6,42,6.28,6.28,0,0,1,6,29.46,6.15,6.15,0,0,1,12,35.72Z" style="fill:#f2a381"/><path d="M57.5,35.56a6,6,0,1,1-6-6.25A6.15,6.15,0,0,1,57.5,35.56Z" style="fill:#f2a381"/><path d="M21.31,66.71s2.09,2.58,7.76,2.56,8.24-2.7,8.24-2.7a15.85,15.85,0,0,1-3.33-5A29.56,29.56,0,0,1,23.38,64,8.65,8.65,0,0,1,21.31,66.71Z" style="fill:#f9b28f"/><path d="M25.1,57.42A18.44,18.44,0,0,1,23.38,64,29.56,29.56,0,0,0,34,61.55a13.57,13.57,0,0,1-1.06-4.3S28.42,58.31,25.1,57.42Z" style="fill:#f2a381"/><path d="M1.78,36h0A.19.19,0,0,0,2,35.87a3,3,0,0,1,2.18-1.41c1.22-.11,1.82.69,2.4,1.62a.31.31,0,0,0,.57-.16A2.73,2.73,0,0,0,4.5,33.64a3.21,3.21,0,0,0-2,.71c-.12.1-.88,1.28-.72,1.25a.18.18,0,0,0,0,.35Z"/><path d="M3.88,37.49c.45-.2.85-.51,1.28-.75a3.12,3.12,0,0,1,1.55-.17.4.4,0,0,0,0-.79A3.8,3.8,0,0,0,4.94,36a5.63,5.63,0,0,0-.81.57c-.23.2-.25.45-.45.65s0,.32.2.25Z"/><path d="M55.3,35.42c.16,0-.6-1.15-.72-1.25a3.31,3.31,0,0,0-2-.7,2.74,2.74,0,0,0-2.67,2.31.31.31,0,0,0,.57.15C51,35,51.64,34.2,52.86,34.3a3,3,0,0,1,2.19,1.39.19.19,0,0,0,.21.08h0c.16,0,.17-.32,0-.35Z"/><path d="M53.41,37.07c-.2-.2-.22-.45-.46-.64a5.13,5.13,0,0,0-.81-.57,3.61,3.61,0,0,0-1.76-.22.39.39,0,0,0,0,.78,3.09,3.09,0,0,1,1.54.16c.44.24.84.54,1.29.74.16.07.34-.11.2-.25Z"/><path d="M11.41,93.27,11.85,85c0-.39-.58-.39-.6,0l-.44,8.25c0,.39.58.39.6,0Z"/><path d="M46.38,93.28,46.08,85c0-.38-.61-.38-.6,0l.3,8.27c0,.38.61.38.6,0Z"/><path d="M50.19,33.34C50,20.39,46,6.78,28.48,6.85,13.11,6.91,7.21,20.25,7,33.07c0,.33,0,.65,0,1,0,9.61,5.26,17.86,12.74,21.57,11.76.31,22.53-6,29.7-15.18a26,26,0,0,0,.81-6.54C50.2,33.72,50.2,33.53,50.19,33.34Z" style="fill:#f9b28f"/><path d="M19.69,55.62a19.94,19.94,0,0,0,9,2.11c9.88,0,18.18-7.34,20.73-17.29C42.22,49.57,31.45,55.93,19.69,55.62Z" style="fill:#f2a381"/><path d="M20.71,34.29A1.52,1.52,0,0,1,19.41,36a1.72,1.72,0,0,1,0-3.34A1.52,1.52,0,0,1,20.71,34.29Z"/><path d="M41.22,34.29A1.52,1.52,0,0,1,39.92,36a1.72,1.72,0,0,1,0-3.34A1.52,1.52,0,0,1,41.22,34.29Z"/><path d="M12.17,18.8c.06-.41.11-.73.13-.93l-.27,0A9.49,9.49,0,0,0,12.17,18.8Z" style="fill:#feb01b"/><path d="M12,17.85h0C12,17.61,12,17.56,12,17.85Z" style="fill:#feb01b"/><path d="M27.62,43A2.45,2.45,0,0,0,31,45.63a.32.32,0,0,0,0-.55c-.56-.34-1.31,0-1.9-.35s-.76-1.24-1.09-1.81a.2.2,0,0,0-.36,0Z"/><path d="M31.44,41.85c1.17-.79,4.08-4.48,1.54-5.38-2-.72-2.63,3.55-4.48-.41-.47-1-.06-3.28-.05-4.4,0-1.4-.24-4.25.49-5.42a.32.32,0,0,0-.44-.44c-.78.49-.69,2.92-.74,3.66-.15,2.32-.52,5.45.11,7.71.24.9.45,1.74,1.49,1.81.65.05.91-.62,1.46-.77.8-.94,1.5-.65,2.1.86a6.13,6.13,0,0,1-1.75,2.44c-.17.17.06.48.27.34Z"/><path d="M11.59,29.46s4.47-5.69,7.82-6.53c1.66-.61,1.88.55,1.66,1a1.19,1.19,0,0,1-.36,1.82s-.3.93-1.86,1.22S10.77,31,11.59,29.46Z" style="fill:#cd7659"/><path d="M46.07,29.46s-4.47-5.69-7.82-6.53c-1.66-.61-1.88.55-1.66,1A1.19,1.19,0,0,0,37,25.76s.3.93,1.86,1.22S46.89,31,46.07,29.46Z" style="fill:#cd7659"/><path d="M18.37,11.85A73.24,73.24,0,0,0,55.79,8.28,3.47,3.47,0,0,0,53.3,6.85C54.63,4,55.21.18,50.87,1.43s-8,.25-19.47-1.25-16,6.67-16,6.67S15-.48,13.21.6,14,6.85,14,6.85,11.54,2,11,3.1s2,4.17,2,4.17C5.62,7,2,12.85,1.83,18.33S6,29.46,6,29.46h1.2c3.71-.58,10.93-15.61,10.93-15.61l.49.21A3.61,3.61,0,0,0,18.37,11.85Z" style="fill:#cd7659"/><path d="M55.79,8.28a73.24,73.24,0,0,1-37.42,3.57,3.61,3.61,0,0,1,.23,2.21c19.53,8.22,26.9,4.74,26.9,4.74,0,4.49,4.88,11,4.88,11,.28-.59,3.52,0,3.52,0-.32-.16.72-11.91,2.15-14.57a4.84,4.84,0,0,0-.18-4.92A2.55,2.55,0,0,0,55.79,8.28Z" style="fill:#bf674f"/><path d="M23.55,63.66s-5.61,1.73-6.91,3.12,1,8.83,8.49,12.08c0,0,1.26-.42-1.38-4.47s-4.19-6.06-2.44-7.68A6.27,6.27,0,0,0,23.55,63.66Z" style="fill:#e95f33"/><path d="M34.68,63s6.35,2,7.59,3.28-1.34,9.62-9.2,12.57c0,0-1.26-1.07,2.43-5.26,3-3.38,2.92-6,1.26-7.5A6.09,6.09,0,0,1,34.68,63Z" style="fill:#e95f33"/></g></g></svg>