<svg xmlns="http://www.w3.org/2000/svg" viewBox="0 0 84.87 95.48"><g id="Layer_2" data-name="Layer 2"><g id="OBJECTS"><path d="M23.43,92.8l.44-8.26c0-.38-.58-.38-.6,0l-.44,8.26c0,.38.58.38.6,0Z"/><path d="M58.4,92.8l-.3-8.26a.3.3,0,0,0-.6,0l.3,8.26a.3.3,0,0,0,.6,0Z"/><path d="M49.57,66.12l-.24,0-16,.13s-.7.06-1.79.23c3,6.78,5.23,13.34,10.33,18.45C44.61,78.75,47.82,72.59,49.57,66.12Z" style="fill:#f9b28f"/><path d="M17.33,85.34c-.45,2.94-.77,5.12-.77,5.12a53.85,53.85,0,0,0,6.91,2.39l.1-5.28Z" style="fill:#f9b28f"/><path d="M64.21,85.32l-.36-2.47-1-6.47-.38-2.57a11.61,11.61,0,0,0-3.44-4.37,15.1,15.1,0,0,0-7.19-3.07,20.35,20.35,0,0,0-2.32-.25c-1.75,6.47-5,12.63-7.7,18.79-5.1-5.11-7.32-11.67-10.33-18.45l-.85.15a22.75,22.75,0,0,0-8.44,3.08,6.79,6.79,0,0,0-3.14,4.43C19,75,18.8,76,18.64,77c-.35,2.19-.72,4.56-1.05,6.7-.09.57-.18,1.12-.26,1.65l6.24,2.23-.1,5.28c7.76,2.2,21,4.5,34.54.23l-.1-5.51Z" style="fill:#fad8b4"/><path d="M64.21,85.32l-6.3,2.25.1,5.51a46.81,46.81,0,0,0,6.92-2.79Z" style="fill:#f9b28f"/><path d="M24,35.24a6.13,6.13,0,0,1-6,6.29A6.28,6.28,0,0,1,18,29,6.14,6.14,0,0,1,24,35.24Z" style="fill:#f2a381"/><path d="M69.52,35.09a6,6,0,1,1-6-6.25A6.14,6.14,0,0,1,69.52,35.09Z" style="fill:#f2a381"/><path d="M33.33,66.23s2.09,2.58,7.76,2.56,8.24-2.69,8.24-2.69a16,16,0,0,1-3.33-5,29.5,29.5,0,0,1-10.6,2.46A8.51,8.51,0,0,1,33.33,66.23Z" style="fill:#f9b28f"/><path d="M37.12,56.94a18.39,18.39,0,0,1-1.72,6.6A29.5,29.5,0,0,0,46,61.08a13.64,13.64,0,0,1-1.06-4.3S40.44,57.84,37.12,56.94Z" style="fill:#f2a381"/><path d="M13.81,35.47h0a.21.21,0,0,0,.21-.09A3,3,0,0,1,16.23,34c1.22-.12,1.82.69,2.4,1.62a.31.31,0,0,0,.57-.16,2.73,2.73,0,0,0-2.68-2.29,3.21,3.21,0,0,0-2,.71c-.12.1-.88,1.28-.71,1.26-.17,0-.17.31,0,.34Z"/><path d="M15.9,37c.45-.2.85-.51,1.28-.75a3.12,3.12,0,0,1,1.55-.17.39.39,0,0,0,0-.78,3.56,3.56,0,0,0-1.77.24,4.94,4.94,0,0,0-.81.57c-.23.19-.25.44-.45.64s0,.33.2.25Z"/><path d="M67.32,35c.15,0-.6-1.15-.72-1.25a3.19,3.19,0,0,0-2-.7,2.73,2.73,0,0,0-2.67,2.3.31.31,0,0,0,.57.16c.57-.92,1.17-1.74,2.39-1.64a3,3,0,0,1,2.19,1.39.2.2,0,0,0,.21.09h0c.17,0,.17-.32,0-.34Z"/><path d="M65.43,36.59c-.2-.19-.22-.44-.46-.64a4.5,4.5,0,0,0-.81-.56,3.5,3.5,0,0,0-1.76-.23.39.39,0,0,0,0,.78,3.21,3.21,0,0,1,1.54.16c.44.24.84.55,1.29.75.16.07.34-.12.2-.26Z"/><path d="M23.43,92.8l.44-8.26c0-.38-.58-.38-.6,0l-.44,8.26c0,.38.58.38.6,0Z"/><path d="M58.4,92.8l-.3-8.26a.3.3,0,0,0-.6,0l.3,8.26a.3.3,0,0,0,.6,0Z"/><path d="M62.21,32.86c-.13-11.42-3.32-23.35-16.08-26-3.47,13.33-13,24.77-27.15,26,0,.23,0,.46,0,.69,0,9.6,5.26,17.85,12.74,21.57,11.76.31,22.53-6.06,29.7-15.19a25.91,25.91,0,0,0,.81-6.53C62.22,33.24,62.22,33.05,62.21,32.86Z" style="fill:#f9b28f"/><path d="M46.13,6.9a27.23,27.23,0,0,0-5.63-.52C25.13,6.44,19.23,19.77,19,32.6v.29C33.11,31.67,42.66,20.23,46.13,6.9Z" style="fill:#f2a381"/><path d="M31.71,55.15a19.93,19.93,0,0,0,9,2.1c9.88,0,18.18-7.34,20.73-17.29C54.24,49.09,43.47,55.46,31.71,55.15Z" style="fill:#f2a381"/><path d="M32.73,33.81a1.51,1.51,0,0,1-1.3,1.67,1.72,1.72,0,0,1,0-3.34A1.52,1.52,0,0,1,32.73,33.81Z"/><ellipse cx="51.94" cy="33.81" rx="1.3" ry="1.67"/><path d="M24.19,18.33c.06-.42.11-.73.13-.94h-.27C24.07,17.58,24.11,17.93,24.19,18.33Z" style="fill:#feb01b"/><path d="M24,17.37h0C24,17.14,24,17.08,24,17.37Z" style="fill:#feb01b"/><path d="M39.64,42.49a2.68,2.68,0,0,0,.91,2.34,2.64,2.64,0,0,0,2.44.32.32.32,0,0,0,0-.55c-.56-.33-1.31,0-1.9-.35S40.33,43,40,42.44a.2.2,0,0,0-.36.05Z"/><path d="M43.46,41.37C44.63,40.58,47.54,36.9,45,36c-2-.72-2.63,3.55-4.48-.41-.47-1-.06-3.28-.05-4.39,0-1.39-.24-4.28.49-5.42a.32.32,0,0,0-.44-.44c-.78.48-.69,2.92-.74,3.66-.15,2.31-.52,5.45.11,7.7.24.9.45,1.75,1.49,1.82.65,0,.92-.62,1.46-.78q1.2-1.41,2.1.87A6.17,6.17,0,0,1,43.2,41c-.18.17,0,.49.26.34Z"/><path d="M18.88,75.5s.44-4.72,6.59-7.47a14.25,14.25,0,0,1,7.86-1.8s3.92-2.17,3.79-9.29A23.57,23.57,0,0,1,20,41.19h-.11c-.05,11.23-.38,23-2.76,34Z" style="fill:#bf674f"/><path d="M61.16,40.87s-3.69,12.6-16.24,15.91a13.83,13.83,0,0,0,4.41,9.32s9.55.4,13.11,7.51.08.2.08.2l1.15,7.84A42.89,42.89,0,0,0,72.52,79c-6.11-11-7-24.88-9.93-37.68A4,4,0,0,1,61.16,40.87Z" style="fill:#bf674f"/><path d="M70.17,16.89c-3-6.45-7.1-12.15-13.17-15C50.5-1.12,45.35.1,42.69,1.2,48.8,10.42,59.18,15,70.17,16.89Z" style="fill:#cd7659"/><path d="M73.89,27.26a73.82,73.82,0,0,0-3.72-10.37C59.18,15,48.8,10.42,42.69,1.2a11.59,11.59,0,0,0-2,1s-.73-.17-1.94-.33C44.47,16.06,58.54,27.59,73.89,27.26Z" style="fill:#d67b63"/><path d="M73.89,27.26c-15.35.33-29.42-11.2-35.13-25.35C33.24,1.15,17.45.43,12,15.57,5.4,34.06,5.75,53.41,4,59.66A66.9,66.9,0,0,1,0,70.41l8.87,2.37L12,65.41v8.87l5.09.91c2.38-11,2.71-22.76,2.76-34-.9.06-7,.3-7.25-5.5-.27-6.25,4.63-6.61,6.27-6,0,0,16.51-4.06,22.44-16.42,0,0,9.31,14,21.06,16.54,0,0,6.55-1.19,6.73,5,.16,5.09-3.82,6.83-6.53,6.53,3,12.8,3.82,26.63,9.93,37.68a19.59,19.59,0,0,0,2.23-1.17l-2-10.43,4.75,8.5,7.37-4.63s-6-21.94-8.5-33.69C75.71,34.43,74.92,30.89,73.89,27.26Z" style="fill:#cd7659"/><path d="M34.22,42.31c-.35,1.51-2.82,2.23-5.52,1.61s-4.6-2.35-4.25-3.86,2.82-2.23,5.52-1.61S34.57,40.8,34.22,42.31Z" style="fill:#f2a381"/><path d="M56.27,38.34c.78,1.34-.52,3.55-2.91,4.95s-5,1.45-5.74.12.52-3.56,2.9-5S55.48,37,56.27,38.34Z" style="fill:#f2a381"/><path d="M26.36,30.29c.13.07,1.89-2.15,2.25-2.49a26.45,26.45,0,0,1,3.71-2.45A.22.22,0,0,0,32.1,25a16.7,16.7,0,0,0-3.69,2.34,9.23,9.23,0,0,0-2.36,3,.19.19,0,0,0,.25.25l.06,0a.14.14,0,0,0,0-.24Z"/><path d="M49.5,24.23l.06.07c.29.26.52-.34.15-.35h-.09a.21.21,0,0,0-.1.39,31.44,31.44,0,0,1,5.69,4.31c.18.17.52-.06.36-.27-1.45-2-3.73-3.26-5.84-4.4l-.11.38h.09c.37,0,.14-.61-.15-.35l-.06.08a.17.17,0,0,0,0,.14Z"/></g></g></svg>