<svg xmlns="http://www.w3.org/2000/svg" viewBox="0 0 57.5 100.72"><g id="Layer_2" data-name="Layer 2"><g id="OBJECTS"><path d="M11.41,98l.44-8.26c0-.39-.58-.38-.6,0L10.81,98c0,.38.58.38.6,0Z"/><path d="M46.38,98l-.3-8.26a.3.3,0,0,0-.6,0l.3,8.26c0,.38.61.39.6,0Z"/><path d="M37.31,71.33l-16,.14s-1.08.09-2.64.37a32.22,32.22,0,0,0-4.05,1c9.64,6,21.44,5.75,31.32,1a15.76,15.76,0,0,0-6.07-2.27A21.63,21.63,0,0,0,37.31,71.33Z" style="fill:#549e87"/><path d="M14.62,72.85a18,18,0,0,0-4.39,2.07,6.84,6.84,0,0,0-3.14,4.43c-.15.89-.31,1.87-.47,2.88-.35,2.18-.72,4.56-1,6.69-.58,3.75-1,6.78-1,6.78s25.18,11.41,48.37-.17l-1.08-7.44-.95-6.47-.38-2.57a11.65,11.65,0,0,0-3.45-4.38,12.72,12.72,0,0,0-1.11-.8C36.06,78.6,24.26,78.88,14.62,72.85Z" style="fill:#64ad99"/><path d="M12,40.48a6.15,6.15,0,0,1-6,6.3A6.28,6.28,0,0,1,6,34.23,6.14,6.14,0,0,1,12,40.48Z" style="fill:#f9b28f"/><path d="M57.5,40.33a6,6,0,1,1-6-6.25A6.14,6.14,0,0,1,57.5,40.33Z" style="fill:#f9b28f"/><path d="M21.31,71.47S23.4,74.05,29.07,74s8.24-2.7,8.24-2.7a15.88,15.88,0,0,1-3.33-5,29.76,29.76,0,0,1-10.6,2.46A8.65,8.65,0,0,1,21.31,71.47Z" style="fill:#fcceb6"/><path d="M25.1,62.18a18.39,18.39,0,0,1-1.72,6.6A29.76,29.76,0,0,0,34,66.32,13.64,13.64,0,0,1,32.92,62S28.42,63.08,25.1,62.18Z" style="fill:#f9b28f"/><path d="M1.78,40.71h0A.2.2,0,0,0,2,40.63a3,3,0,0,1,2.18-1.4c1.22-.12,1.82.69,2.4,1.61a.31.31,0,0,0,.57-.15A2.73,2.73,0,0,0,4.5,38.4a3.21,3.21,0,0,0-2,.71c-.12.1-.88,1.28-.72,1.26-.17,0-.17.32,0,.34Z"/><path d="M3.88,42.25a13.79,13.79,0,0,0,1.28-.75,3.12,3.12,0,0,1,1.55-.17.39.39,0,0,0,0-.78,3.56,3.56,0,0,0-1.77.24,4.94,4.94,0,0,0-.81.57c-.23.19-.25.44-.45.64s0,.33.2.25Z"/><path d="M55.3,40.19c.15,0-.6-1.15-.72-1.25a3.25,3.25,0,0,0-2-.7,2.73,2.73,0,0,0-2.67,2.3.31.31,0,0,0,.57.16c.57-.92,1.17-1.74,2.39-1.64a3,3,0,0,1,2.19,1.39.2.2,0,0,0,.21.09h0c.17,0,.17-.32,0-.34Z"/><path d="M53.41,41.83c-.2-.19-.22-.44-.46-.64a4.5,4.5,0,0,0-.81-.56,3.51,3.51,0,0,0-1.76-.23.39.39,0,0,0,0,.78,3.21,3.21,0,0,1,1.54.16c.44.24.84.55,1.29.75.16.07.34-.12.2-.26Z"/><path d="M11.41,98l.44-8.26c0-.39-.58-.38-.6,0L10.81,98c0,.38.58.38.6,0Z"/><path d="M46.38,98l-.3-8.26a.3.3,0,0,0-.6,0l.3,8.26c0,.38.61.39.6,0Z"/><path d="M50.19,38.1C50,25.15,46,11.54,28.48,11.62,13.11,11.68,7.21,25,7,37.84c0,.32,0,.65,0,1,0,9.61,5.26,17.86,12.74,21.58,11.76.31,22.53-6.06,29.7-15.19a26,26,0,0,0,.81-6.53C50.2,38.48,50.2,38.29,50.19,38.1Z" style="fill:#fcceb6"/><path d="M19.69,60.39a19.93,19.93,0,0,0,9,2.1c9.88,0,18.18-7.34,20.73-17.29C42.22,54.33,31.45,60.7,19.69,60.39Z" style="fill:#f9b28f"/><path d="M20.71,39.05a1.51,1.51,0,0,1-1.3,1.67,1.72,1.72,0,0,1,0-3.34A1.52,1.52,0,0,1,20.71,39.05Z"/><ellipse cx="39.92" cy="39.05" rx="1.3" ry="1.67"/><path d="M12.17,23.57c.06-.42.11-.73.13-.94H12C12.05,22.82,12.09,23.17,12.17,23.57Z" style="fill:#feb01b"/><path d="M12,22.61h0C12,22.38,12,22.32,12,22.61Z" style="fill:#feb01b"/><path d="M28.39,46.14a2.44,2.44,0,0,0,3.35,2.66.32.32,0,0,0,0-.54c-.57-.34-1.31,0-1.91-.36s-.76-1.23-1.09-1.8a.19.19,0,0,0-.35,0Z"/><path d="M32.11,44.25c1.49.1,3.37-4.3,1.53-5.23a2.26,2.26,0,0,0-1-.13c-.23,0-.5.38-.72.43l-2,.46-.26-.94c-.61-1.21-.25-3.77-.2-5.12a24.2,24.2,0,0,1,.82-6.3c.18-.53-.66-.76-.83-.23-1.09,3.34-1.8,9.47-.3,12.8.23.52.37,1.09,1,1.27.2.06.6-.1.75,0,.29-.22.57-.45.85-.68q2.72,1.62.38,3.32a.2.2,0,0,0,0,.39Z"/><path d="M45.5,20.67c.15.25.64,9.54,4.52,13.6a5.49,5.49,0,0,1,3.27.09S52.82,22.51,50.9,19,45.5,20.67,45.5,20.67Z" style="fill:#1e1d35"/><path d="M32.51,3.73a35.1,35.1,0,0,1-4.77,0,37.14,37.14,0,0,0-4.48,0C17.58,9.28,10.07,13,2.2,15.3A12.24,12.24,0,0,0,.47,19.23C13.18,17.69,24.29,12.73,32.51,3.73Z" style="fill:#343351"/><path d="M49.4,11.62C52.91,3.16,46.74-.16,42.07,0c-3.9.14-3,3.13-9.56,3.72-8.22,9-19.33,14-32,15.5C-1.4,26.67,3.17,35,3.17,35c1.67-1.38,4.57-.38,4.57-.38,1.83-3,4.56-13.5,4.56-13.5S25.83,23.28,36.57,24c8.59.57,15.42-2.25,16.16-8.09S49.4,11.62,49.4,11.62Z" style="fill:#2c2945"/><path d="M2.2,15.3c7.87-2.27,15.38-6,21.06-11.54-8.68.5-12.61,3.91-12.61,3.91s.25-5.91-1.58-5.83S7.9,9.34,7.9,9.34s-2.58-6-4.1-4.75,2.2,7,2.2,7A13.14,13.14,0,0,0,2.2,15.3Z" style="fill:#2c2945"/><path d="M29.65,73.09s-5.88-1.3-7.21-2.82l1.07-1.75a3.43,3.43,0,0,0-3.69,2c-1.21,2.5-.19,2.95,1.49,4.41s2.51,3.21,3.76,3.88S29,76,29.65,73.09Z" style="fill:#feb01b"/><path d="M28.8,72.84S34.68,71.54,36,70l-1.07-1.75a3.43,3.43,0,0,1,3.69,2c1.21,2.5.19,2.95-1.49,4.41s-2.51,3.21-3.76,3.88S29.42,75.76,28.8,72.84Z" style="fill:#feb01b"/><path d="M11.42,33c-.13-.2,1.9-5.39,4.36-5.81,1.35-.06,1.47.59,1.47.59s1.76-2.09,2.9-.7c.34.61-.8,1.62-.8,1.62s2-.46.92,1.25-5.93.82-8.47,3" style="fill:#2c2945"/><path d="M45.81,33c.12-.2-1.9-5.39-4.37-5.81-1.35-.06-1.46.59-1.46.59s-1.76-2.09-2.91-.7c-.34.61.8,1.62.8,1.62s-2-.46-.91,1.25,5.92.82,8.47,3" style="fill:#2c2945"/><path d="M17.6,46.49h0a14,14,0,0,1-5.52-.84C8.35,43.76,9.3,35.12,9.34,34.76c.05-1.85,7.24-3,11.76-3.29.35,0,.67,0,1,0,2.12,0,3.64.5,4.5,1.47a2.82,2.82,0,0,1,.71,2,70.89,70.89,0,0,1-.68,8.52C26.24,45.69,21.53,46.49,17.6,46.49Zm4.48-14.06-.91,0c-6.49.41-10.56,1.81-10.84,2.41-.26,2.31-.38,8.58,2.2,9.88a13.2,13.2,0,0,0,5.07.74h0c4.3,0,7.82-1,8-2.2a73.28,73.28,0,0,0,.66-8.43,1.7,1.7,0,0,0-.48-1.31C25.16,32.82,23.86,32.43,22.08,32.43Z" style="fill:#3793b5"/><path d="M50.14,34.8c-.06-1.89-7.25-3-11.77-3.33-.34,0-.67,0-1,0-2.13,0-3.65.5-4.51,1.47a2.75,2.75,0,0,0-.71,2c0,.12,0,1.94.2,4.12a.69.69,0,0,1,.17,0h0a2.12,2.12,0,0,1,.8-.07c-.15-2.18-.19-4-.19-4.07a1.72,1.72,0,0,1,.46-1.24c.66-.74,2-1.14,3.76-1.14l.91,0c6.48.41,10.56,1.81,10.83,2.41.27,2.31.39,8.58-2.2,9.88a13.14,13.14,0,0,1-5.06.74c-4.3,0-7.83-1-8-2.2l-.09-.58a2.11,2.11,0,0,1-.48.73c-.09.12-.2.23-.3.34.76,2,5.17,2.71,8.9,2.71a14,14,0,0,0,5.52-.84C51.13,43.76,50.18,35.12,50.14,34.8Z" style="fill:#3793b5"/><path d="M26.65,39.07l-.48-.87a7.51,7.51,0,0,1,6.93,0l-.49.87A6.7,6.7,0,0,0,26.65,39.07Z" style="fill:#3793b5"/></g></g></svg>