<svg xmlns="http://www.w3.org/2000/svg" viewBox="0 0 59.28 95.27"><g id="Layer_2" data-name="Layer 2"><g id="OBJECTS"><path d="M11.49,92.59l.45-8.25c0-.39-.58-.39-.6,0l-.45,8.25c0,.39.58.39.6,0Z"/><path d="M46.46,92.59l-.3-8.26c0-.38-.61-.39-.6,0l.3,8.26a.3.3,0,0,0,.6,0Z"/><path d="M21.39,66s-1.08.08-2.64.37a22.93,22.93,0,0,0-8.44,3.08,6.83,6.83,0,0,0-3.14,4.43c-.15.89-.31,1.86-.47,2.87-.35,2.19-.72,4.56-1,6.7-.58,3.75-1,6.77-1,6.77a67.71,67.71,0,0,0,24.66,5c-.78-9.81.15-20.81-5.16-29.27Z" style="fill:#3793b5"/><path d="M24.12,66c3.26,5.19,4.17,11.34,4.56,17.58a109.59,109.59,0,0,1,5.51-17.66Z" style="fill:#fcceb6"/><path d="M53,90.09l-1.09-7.45L51,76.18l-.37-2.58a11.58,11.58,0,0,0-3.45-4.37A15.16,15.16,0,0,0,40,66.16a19.72,19.72,0,0,0-2.56-.27l-3.2,0a109.59,109.59,0,0,0-5.51,17.66c.25,3.93.3,7.9.6,11.69A51.58,51.58,0,0,0,53,90.09Z" style="fill:#3793b5"/><path d="M12.08,35a6.14,6.14,0,0,1-6,6.29,6.28,6.28,0,0,1,0-12.55A6.14,6.14,0,0,1,12.08,35Z" style="fill:#f9b28f"/><path d="M57.58,34.88a6,6,0,1,1-6-6.25A6.13,6.13,0,0,1,57.58,34.88Z" style="fill:#f9b28f"/><path d="M21.39,66s2.1,2.57,7.76,2.55,8.24-2.69,8.24-2.69a15.85,15.85,0,0,1-3.33-5,29.68,29.68,0,0,1-10.6,2.47A8.74,8.74,0,0,1,21.39,66Z" style="fill:#fcceb6"/><path d="M25.19,56.74a18.33,18.33,0,0,1-1.73,6.6,29.68,29.68,0,0,0,10.6-2.47A13.91,13.91,0,0,1,33,56.57S28.51,57.63,25.19,56.74Z" style="fill:#f9b28f"/><path d="M1.87,35.26h0a.19.19,0,0,0,.2-.08A3,3,0,0,1,4.3,33.78c1.21-.11,1.81.69,2.39,1.62.15.24.6.16.58-.16A2.73,2.73,0,0,0,4.58,33a3.18,3.18,0,0,0-2,.72c-.12.1-.88,1.28-.71,1.25-.17,0-.17.32,0,.34Z"/><path d="M4,36.81c.45-.2.85-.51,1.29-.75a3,3,0,0,1,1.54-.18.39.39,0,0,0,0-.78A3.56,3.56,0,0,0,5,35.34a4.48,4.48,0,0,0-.8.57c-.24.2-.26.44-.46.64a.17.17,0,0,0,.2.26Z"/><path d="M55.38,34.74c.16,0-.6-1.15-.72-1.25a3.25,3.25,0,0,0-2-.7A2.74,2.74,0,0,0,50,35.1c0,.31.42.4.58.15.56-.92,1.16-1.74,2.38-1.64A3,3,0,0,1,55.13,35a.21.21,0,0,0,.21.08h0c.17,0,.17-.32,0-.34Z"/><path d="M53.49,36.39c-.19-.2-.22-.45-.45-.64a5.22,5.22,0,0,0-.82-.57A3.61,3.61,0,0,0,50.46,35a.4.4,0,0,0,0,.79A3,3,0,0,1,52,35.9c.44.24.84.54,1.3.74.16.07.33-.11.19-.25Z"/><path d="M11.49,92.59l.45-8.25c0-.39-.58-.39-.6,0l-.45,8.25c0,.39.58.39.6,0Z"/><path d="M46.46,92.59l-.3-8.26c0-.38-.61-.39-.6,0l.3,8.26a.3.3,0,0,0,.6,0Z"/><path d="M50.28,32.65C50.12,19.7,46.06,6.1,28.57,6.17,13.2,6.23,7.29,19.56,7,32.39c0,.33,0,.65,0,1,0,9.61,5.26,17.86,12.75,21.57,11.75.31,22.52-6,29.69-15.19a25.85,25.85,0,0,0,.81-6.53Z" style="fill:#fcceb6"/><path d="M19.78,54.94a19.73,19.73,0,0,0,9,2.1c9.88,0,18.18-7.34,20.73-17.29C42.3,48.89,31.53,55.25,19.78,54.94Z" style="fill:#f9b28f"/><path d="M20.79,33.61a1.52,1.52,0,0,1-1.3,1.67,1.72,1.72,0,0,1,0-3.34A1.51,1.51,0,0,1,20.79,33.61Z"/><ellipse cx="40.01" cy="33.61" rx="1.3" ry="1.67"/><path d="M12.09,17.17h0C12.09,16.93,12.09,16.88,12.09,17.17Z" style="fill:#feb01b"/><path d="M27.71,42.28a2.43,2.43,0,0,0,3.34,2.66.31.31,0,0,0,0-.54c-.56-.34-1.31,0-1.9-.35s-.76-1.24-1.09-1.81a.19.19,0,0,0-.35,0Z"/><path d="M31.52,40.07c1.13-.71,3.93-4,1.68-5-1.72-.74-3.47,2.73-4.57,0-.44-1.07-.11-2.86-.11-4,0-1.5-.33-4.34.49-5.57.18-.26-.16-.57-.42-.42-.79.45-.67,2.56-.73,3.41A27.71,27.71,0,0,0,28,35.59c.17.84.46,1.76,1.45,1.81a2.25,2.25,0,0,0,1.14-.47c1-.57.82-1.16,1.64.22s.14,1.64-.92,2.59a.21.21,0,0,0,.26.33Z"/><path d="M12.06,28.63s2.62-4.63,4.43-5c0,0,2.94-2.82,4.57-1.5a1.35,1.35,0,0,1,0,2.37s.53.54-1,1.68S10,31,12.06,28.63Z" style="fill:#2c2945"/><path d="M44.35,28.63s-2.63-4.63-4.44-5c0,0-2.94-2.82-4.56-1.5a1.35,1.35,0,0,0,0,2.37s-.54.54,1,1.68S46.41,31,44.35,28.63Z" style="fill:#2c2945"/><path d="M30.84,11c0,2,2,2,3,3,4,2,8,1,12,0,0,5,5,7,9,7-2.77,4.43.29,7,4.42,8.45a6.82,6.82,0,0,0-1.68-4.61c1.25-10.91-7.12-11-7.12-11s2.38-3.63-1.5-9.13-14.9-2.51-14.9-2.51C28-3.42,22,3.47,22,3.47S15.52,1.77,8.71,6.72,3.88,20.1,3.88,20.1-.66,22.6.08,27.25s5.25,3.31,5.25,3.31C9.23,30,11,24.81,11,24.81c3.72-.8,4-3.61,3.84-5.37-1-1.41-2-2.78-2-4.47C18.84,20,25.84,16,30.84,11Z" style="fill:#2c2945"/><path d="M54.84,21c-4,0-9-2-9-7-4,1-8,2-12,0-1-1-3-1-3-3-5,5-12,9-18,4,0,1.69.95,3.06,2,4.47A8,8,0,0,0,14.49,18c2.06,3,7.29.13,7.29.13,7.47,2.37,10.59-.92,10.59-.92,2.79,6,14.09,6.67,14.09,6.67,2.25,8.17,6.25,12.07,10.73,8.79a4.63,4.63,0,0,0,2.07-3.22C55.13,28,52.07,25.4,54.84,21Z" style="fill:#1e1d35"/><path d="M5.33,41.17s-3.13,5,.75,7.23,6,.17,6,.17-3.25-5-3.92-7.64A5.17,5.17,0,0,1,5.33,41.17Z" style="fill:#1e1d35"/><path d="M49.47,40.77s-1.83,4.85-3.89,7.31c1.09,1.89,2.53,3,3.89-.86,0,0,5-1.9,5.11-6.89A6.3,6.3,0,0,1,49.47,40.77Z" style="fill:#1e1d35"/><path d="M22.86,64.36l-1.32,1.53a9.05,9.05,0,0,0,3.76,2.24c-1.87,2.26-2.71,6.34-3.34,6.71s-3.13-2.67-4.56-5.24,1.81-4.57,3-5.13A2.34,2.34,0,0,1,22.86,64.36Z" style="fill:#2c2945"/><path d="M36,64.36l1.31,1.53a11.17,11.17,0,0,1-4,2.12c1.87,2.27,2.93,6.46,3.55,6.83S40,72.17,41.46,69.6s-1.81-4.57-3-5.13A2.32,2.32,0,0,0,36,64.36Z" style="fill:#2c2945"/><path d="M33.5,68.34c-2.31-.26-4.84,11.48-5,12.9a60.28,60.28,0,0,0,.14,13.56c.05.47.78.49.74,0C29,89.66,28.6,84,29.77,79a38,38,0,0,1,2.91-8.08,7.62,7.62,0,0,0,1.21-2.83.31.31,0,0,0-.3-.3H33.5a.29.29,0,0,0,0,.58Z"/><path d="M31.05,95.05a58.73,58.73,0,0,1,3.62-25.84c.11-.28-.35-.47-.47-.2C30.87,76.25,29,87.28,30.8,95.09a.13.13,0,0,0,.25,0Z"/><path d="M24.22,69.93c1.58,4.11,2,8.49,3.39,12.65,0,.11.22.1.2,0a59.8,59.8,0,0,0-1.25-6.88c-.42-2-.83-4.21-2-5.87-.1-.13-.37-.06-.3.13Z"/><path d="M23.54,71.26a6.51,6.51,0,0,0,1.32.15,2.78,2.78,0,0,0,1.25-.11c.3-.12.19-.58-.13-.49-.81.21-1.63,0-2.44.12-.17,0-.15.29,0,.33Z"/><path d="M32.38,71.64c.89,0,1.95.5,2.81.08a.29.29,0,0,0-.14-.53c-.53,0-1,.07-1.55,0s-.86-.16-1.21.09a.17.17,0,0,0,.09.31Z"/><path d="M34.37,90.85c-.07-2.63-.28-5.25-.32-7.88a.26.26,0,0,0-.52,0,51.16,51.16,0,0,0,.52,7.92c0,.18.32.14.32,0Z"/><path d="M33.57,82.82c.61.65,2.6,0,3.36-.06,2-.19,4-.18,5.91-.48a.19.19,0,0,0,0-.37A19.56,19.56,0,0,0,38,82.1c-1.41.14-3,.6-4.35.63a.05.05,0,0,0,0,.09Z"/><path d="M42.72,82.28a8.81,8.81,0,0,0,.33,2.88c.24,1.15.37,2.35.68,3.49a.19.19,0,0,0,.38-.06c.12-2-.74-4.32-1.12-6.34,0-.17-.26-.11-.27,0Z"/><path d="M34.07,90.86c.25.55,1.58.84,2.12,1.06a15.27,15.27,0,0,0,3.27,1.3.19.19,0,0,0,.09-.35c-1.74-.74-3.55-1.43-5.26-2.23a.16.16,0,0,0-.22.22Z"/><path d="M39.6,93.25c.25,0,.46-.24.64-.39.58-.46,1.09-1,1.63-1.52a11,11,0,0,0,2.36-2.5.19.19,0,0,0-.25-.25,3.86,3.86,0,0,0-.94.86c-.41.42-.89.77-1.31,1.18-.78.74-1.5,1.54-2.26,2.31a.19.19,0,0,0,.13.31Z"/></g></g></svg>