<svg xmlns="http://www.w3.org/2000/svg" viewBox="0 0 62.74 99.33"><g id="Layer_2" data-name="Layer 2"><g id="OBJECTS"><path d="M14.92,96.65l.44-8.25c0-.39-.58-.39-.6,0l-.44,8.25c0,.39.58.39.6,0Z"/><path d="M49.88,96.66l-.29-8.27c0-.38-.62-.38-.6,0l.29,8.27c0,.38.62.38.6,0Z"/><path d="M16.79,72a15.44,15.44,0,0,0-3,1.58A6.78,6.78,0,0,0,10.6,78c-.15.89-.31,1.86-.48,2.88-.35,2.18-.72,4.55-1,6.69-.57,3.75-1,6.77-1,6.77a54.38,54.38,0,0,0,6.66,2.33L14.84,90C16.78,85.34,16.85,76.05,16.79,72Z" style="fill:#fcceb6"/><path d="M55.33,86.7l-.94-6.46L54,77.66a11.58,11.58,0,0,0-3.45-4.37c-.34-.27-.72-.54-1.12-.8a14.14,14.14,0,0,0-2-1.07c-.08,3.75-.08,13.7,1.94,18.54l.14,7a46.74,46.74,0,0,0,6.92-2.78Z" style="fill:#fcceb6"/><path d="M47.49,78.19c-.12-2.77-.1-5.27-.07-6.77a16.9,16.9,0,0,0-4-1.2A21.63,21.63,0,0,0,40.82,70l-16,.14s-1.08.08-2.64.37a32.22,32.22,0,0,0-4.05,1c-.44.15-.89.31-1.34.49,0,1.36,0,3.29-.05,5.43A65.87,65.87,0,0,0,47.49,78.19Z" style="fill:#3793b5"/><path d="M49.28,89.75a26.78,26.78,0,0,1-1.41-6.53c-10.56,3.1-21.46,4.61-31.7,1.27A23.56,23.56,0,0,1,14.84,90v.24C25.55,94.38,37.84,93.29,49.28,89.75Z" style="fill:#3793b5"/><path d="M49.28,89.75c-11.44,3.54-23.73,4.63-34.45.45l-.12,6.44c7.71,2.21,21.13,4.61,34.79.29l-.14-7C49.33,89.9,49.31,89.82,49.28,89.75Z" style="fill:#64ad99"/><path d="M47.87,83.22c-.19-1.67-.31-3.39-.38-5a65.87,65.87,0,0,1-30.75-.8,66.32,66.32,0,0,1-.57,7.1C26.41,87.83,37.31,86.32,47.87,83.22Z" style="fill:#64ad99"/><path d="M15.51,39.1a6.14,6.14,0,0,1-6,6.29,6.28,6.28,0,0,1,0-12.55A6.15,6.15,0,0,1,15.51,39.1Z" style="fill:#f9b28f"/><path d="M61,38.94a6,6,0,1,1-6-6.25A6.15,6.15,0,0,1,61,38.94Z" style="fill:#f9b28f"/><path d="M24.82,70.09s2.09,2.57,7.76,2.56S40.82,70,40.82,70a15.85,15.85,0,0,1-3.33-5,29.56,29.56,0,0,1-10.6,2.47A8.77,8.77,0,0,1,24.82,70.09Z" style="fill:#fcceb6"/><path d="M28.61,60.8a18.44,18.44,0,0,1-1.72,6.6,29.56,29.56,0,0,0,10.6-2.47,13.84,13.84,0,0,1-1.07-4.3S31.93,61.69,28.61,60.8Z" style="fill:#f9b28f"/><path d="M5.29,39.33h0a.21.21,0,0,0,.21-.08,3,3,0,0,1,2.18-1.41c1.22-.11,1.81.69,2.39,1.62a.31.31,0,0,0,.58-.16A2.72,2.72,0,0,0,8,37a3.23,3.23,0,0,0-2,.71c-.12.1-.87,1.28-.71,1.25a.18.18,0,0,0,0,.35Z"/><path d="M7.38,40.87c.45-.2.86-.51,1.29-.75A3,3,0,0,1,10.22,40a.4.4,0,0,0,0-.79,3.65,3.65,0,0,0-1.77.24,4.94,4.94,0,0,0-.81.57c-.23.2-.26.45-.45.65s0,.32.19.25Z"/><path d="M58.8,38.8c.16,0-.59-1.15-.72-1.25a3.22,3.22,0,0,0-2-.7,2.73,2.73,0,0,0-2.67,2.31.31.31,0,0,0,.57.15c.57-.92,1.17-1.74,2.38-1.63a2.94,2.94,0,0,1,2.19,1.39.21.21,0,0,0,.21.08h0a.18.18,0,0,0,0-.35Z"/><path d="M56.92,40.45c-.2-.2-.23-.45-.46-.64a5.13,5.13,0,0,0-.81-.57A3.53,3.53,0,0,0,53.88,39a.39.39,0,0,0,0,.78,3,3,0,0,1,1.55.16c.43.24.84.54,1.29.74.16.07.34-.11.2-.25Z"/><path d="M14.92,96.65l.44-8.25c0-.39-.58-.39-.6,0l-.44,8.25c0,.39.58.39.6,0Z"/><path d="M49.88,96.66l-.29-8.27c0-.38-.62-.38-.6,0l.29,8.27c0,.38.62.38.6,0Z"/><path d="M53.7,36.72C53.54,23.77,49.49,10.16,32,10.23c-15.37.06-21.28,13.4-21.52,26.22,0,.33,0,.65,0,1C10.49,47,15.72,55.29,23.2,59c11.76.31,22.53-6,29.7-15.18a26,26,0,0,0,.81-6.54C53.71,37.09,53.7,36.91,53.7,36.72Z" style="fill:#fcceb6"/><path d="M23.2,59a19.93,19.93,0,0,0,9,2.11c9.88,0,18.19-7.35,20.74-17.29C45.73,53,35,59.31,23.2,59Z" style="fill:#f9b28f"/><path d="M24.22,37.67a1.52,1.52,0,0,1-1.3,1.67,1.72,1.72,0,0,1,0-3.34A1.52,1.52,0,0,1,24.22,37.67Z"/><path d="M44.73,37.67A1.34,1.34,0,1,1,43.43,36,1.52,1.52,0,0,1,44.73,37.67Z"/><path d="M15.68,22.18c.06-.41.1-.73.13-.93l-.27,0A9.49,9.49,0,0,0,15.68,22.18Z" style="fill:#feb01b"/><path d="M15.51,21.23h0C15.51,21,15.51,20.94,15.51,21.23Z" style="fill:#feb01b"/><path d="M31.9,44.76a2.44,2.44,0,0,0,3.34,2.66.32.32,0,0,0,0-.55c-.56-.34-1.3,0-1.9-.35s-.76-1.24-1.09-1.81a.19.19,0,0,0-.35,0Z"/><path d="M32.87,29.93c.33,0-1.31,9.4.51,10.48.47.28.62.44,1.25.06s.62-2,1.95-1c.67.52-1.37,2.57-1.9,3l.76.32v-.13a.44.44,0,0,0-.88,0v.13a.45.45,0,0,0,.76.31c.92-.78,3.73-4.4,1.23-5.17-1.38-.43-1.37,1.31-2.2,1.67-1.59.68-1.05-4.95-1-5.44,0-1.49,0-3-.08-4.5,0-.11-.1-.25-.23-.23h-.13a.22.22,0,0,0,0,.44Z"/><path d="M16.17,31.64c-.13-.2,1.9-5.4,4.37-5.81,1.35-.07,1.46.59,1.46.59s1.76-2.1,2.91-.7c.33.61-.8,1.62-.8,1.62s2-.47.91,1.24-5.93.82-8.47,3" style="fill:#feb01b"/><path d="M49.31,31.64c.13-.2-1.9-5.4-4.36-5.81-1.35-.07-1.46.59-1.46.59s-1.76-2.1-2.91-.7c-.34.61.8,1.62.8,1.62s-2-.47-.92,1.24,5.93.82,8.48,3" style="fill:#feb01b"/><path d="M57.5,18c-.09.44-.15.87-.2,1.3q.59-.12,1.2-.3Z" style="fill:#feb01b"/><path d="M57.3,19.26c-9.21,1.89-14-7.54-18.8-13.3-4,9-17,13-27,10,0,6-1.13,12.56-5.06,17.15.53.13.86.18.86.18a2.86,2.86,0,0,1,3.31.41c4.11-.94,6.2-15.61,6.2-15.61S21.5,19.09,28,21s13.5-3.54,13.5-3.54a49.79,49.79,0,0,1,3.23,6.72c2,4.75,7.64,2.88,8.17,3.85s.8,8.66,1.6,6.56,4.5-.33,4.5-.33a8,8,0,0,0,3.19-3.76A12.3,12.3,0,0,1,57.3,19.26Z" style="fill:#f79c0b"/><path d="M38.5,6c4.79,5.76,9.59,15.19,18.8,13.3.05-.43.11-.86.2-1.3l1,1q-.61.18-1.2.3a12.3,12.3,0,0,0,4.89,11.27C64.25,25.32,59.87,19,59.87,19s1.75-.5,2.13-4.37-6.25-4.36-6.25-4.36,2.62-4.89-.41-8.39S46.5.71,39.12,1.84s-7.25-2-17.5-1.75S7.3,9.71,7.3,9.71A22.13,22.13,0,0,1,3.9,14c-2.35,2.38-5,10.25-3.4,14.48,1.21,3.14,4.39,4.29,5.94,4.67C10.37,28.52,11.5,22,11.5,16,21.5,19,34.5,15,38.5,6Z" style="fill:#feb01b"/></g></g></svg>