<svg xmlns="http://www.w3.org/2000/svg" viewBox="0 0 78.43 98.95"><g id="Layer_2" data-name="Layer 2"><g id="OBJECTS"><path d="M20.2,38.36a6.14,6.14,0,0,1-6,6.27,6.28,6.28,0,0,1,0-12.55A6.14,6.14,0,0,1,20.2,38.36Z" style="fill:#f9b28f"/><path d="M65.7,38.36a6,6,0,1,1-6-6.28A6.14,6.14,0,0,1,65.7,38.36Z" style="fill:#f9b28f"/><path d="M29.41,69.38s-13.08,1-14.25,7.83c-1.05,6.16-2.61,16.34-2.61,16.34s25.15,11.5,48.38,0l-2.35-16.5s-2.76-7.34-13.17-7.75Z" style="fill:#feb01b"/><path d="M40.57,58.8c-.35,0,1.42,7.13.5,7.89s6.21.39,9.11.37,7.23,1.57,8.81-.93-1.75-7.42-1.92-10.83-.33-7.5-.33-7.5S43.82,58.8,40.57,58.8Z" style="fill:#db4d28"/><path d="M29.41,69.38S31.49,72,37.16,72s8.25-2.66,8.25-2.66a16.06,16.06,0,0,1-3.32-5,29.52,29.52,0,0,1-10.61,2.42A8.65,8.65,0,0,1,29.41,69.38Z" style="fill:#fccfb6"/><path d="M33.23,60.1a18.23,18.23,0,0,1-1.75,6.59,29.52,29.52,0,0,0,10.61-2.42,13.7,13.7,0,0,1-1-4.31A28.6,28.6,0,0,1,33.23,60.1Z" style="fill:#f9b28f"/><path d="M58.41,36.67c0,13.12-9.68,23.75-21.63,23.75S15.16,49.79,15.16,36.67,21,9.56,36.78,9.55C54.53,9.53,58.41,23.56,58.41,36.67Z" style="fill:#fcceb6"/><path d="M31.27,44.93c-.59,2.11-3.6,3.12-6.72,2.25S19.37,43.9,20,41.78s3.59-3.12,6.72-2.26S31.86,42.81,31.27,44.93Z" style="fill:#f9b28f"/><path d="M54.09,42.32c.39,2.16-1.89,4.37-5.08,5s-6.09-.72-6.48-2.88,1.89-4.38,5.08-5S53.71,40.16,54.09,42.32Z" style="fill:#f9b28f"/><path d="M10,38.55h0a.18.18,0,0,0,.2-.09,3,3,0,0,1,2.19-1.4c1.22-.1,1.81.7,2.39,1.63a.31.31,0,0,0,.57-.15,2.72,2.72,0,0,0-2.68-2.3,3.23,3.23,0,0,0-2,.71c-.12.1-.87,1.27-.71,1.25-.17,0-.17.32,0,.34Z"/><path d="M12.07,40.1c.45-.2.86-.51,1.29-.75a3.12,3.12,0,0,1,1.55-.16.4.4,0,0,0,0-.79,3.67,3.67,0,0,0-1.77.24,5.57,5.57,0,0,0-.81.56c-.23.2-.26.45-.45.65s0,.32.19.25Z"/><path d="M63.5,38.21c.16,0-.6-1.15-.72-1.25a3.23,3.23,0,0,0-2-.71,2.73,2.73,0,0,0-2.68,2.3c0,.31.42.4.58.15.56-.92,1.17-1.73,2.38-1.63a3,3,0,0,1,2.19,1.4.2.2,0,0,0,.21.09h0c.17,0,.17-.32,0-.34Z"/><path d="M61.61,39.85c-.2-.2-.23-.45-.46-.65a5.07,5.07,0,0,0-.81-.56,3.63,3.63,0,0,0-1.76-.24.4.4,0,0,0,0,.79,3.09,3.09,0,0,1,1.54.16c.43.24.84.55,1.29.75.16.07.33-.11.2-.25Z"/><path d="M15.78,44.42A6.32,6.32,0,0,1,8.2,38.36c.55-6.69,7.2-6.28,7.2-6.28,6.08-5.29,5.76-17.2,5.76-17.2l-.25-2.4S19.1,3.3,17.41,3.86s.94,8.5.94,8.5S13.53,6.61,12.41,8s5.69,5.57,5.69,5.57C6.41,12.05,2.47,21.92,3.47,25.05S9.1,31.8,4.35,35.8-.84,45.11,1,47.55,6.22,51.3,5.6,55.23,3,63.61,5,65.67c.78.8,5.18,1.45,7.52,1.39,1.29,0,1.65-4.76,1.65-4.76,1.06-.1.24,4.49,1.3,4.39a26.3,26.3,0,0,1,3.59.14C21.44,59.93,16.76,51.89,15.78,44.42Z" style="fill:#e95f33"/><path d="M30.89,59.52c-10.9-4-14.61-15.29-14.61-15.29a1.93,1.93,0,0,1-.5.19c1,7.47,5.66,15.51,3.31,22.41,1.27.11,2.49.24,3.19.24,5.82,0,8.91.23,9.2-.15,1.64-2.16,1.75-6.82,1.75-6.82Z" style="fill:#db4d28"/><path d="M13.6,42.49c-1.68,0-2.43,1.72-2.82,3.14A6,6,0,0,0,12,50.89c2.13,2.47,5.71,3.51,8.24,1a.5.5,0,0,0-.7-.7c-1.8,1.82-4.27,1.39-6.14-.1-2.3-1.84-3.09-6.92.23-8.23a.18.18,0,0,0,0-.35Z" style="fill:#feb01b"/><path d="M36.86,72l.25,26.7a.3.3,0,0,0,.6,0L37.46,72c0-.38-.61-.38-.6,0Z"/><path d="M19.77,96l.44-8.26c0-.38-.58-.38-.6,0L19.17,96c0,.38.58.38.6,0Z"/><path d="M54.73,96l-.3-8.26a.3.3,0,0,0-.6,0l.3,8.26a.3.3,0,0,0,.6,0Z"/><path d="M40.16,79a.83.83,0,1,1-.81-1A.92.92,0,0,1,40.16,79Z" style="fill:#e95f33"/><ellipse cx="39.72" cy="94.97" rx="0.81" ry="1" style="fill:#e95f33"/><path d="M40.16,87.13a.83.83,0,1,1-1.62,0,.83.83,0,1,1,1.62,0Z" style="fill:#e95f33"/><path d="M31.28,67.06s-3.47.55-4.37,1.86-.42,9.9,1.92,11,7.91-8,7.91-8,4.67,6.11,7.67,7,4.33-9.81,3.16-10.86-4.21-1.42-4.21-1.42l2,2.61a17,17,0,0,1-8.67,2.16c-4.77,0-6.9-1.67-6.9-1.67Z" style="fill:#2c2945"/><path d="M34,43.29a4.6,4.6,0,0,0,2.95,3.07c1.3.42,3.22.43,4.06-.82.3-.45-.27-.92-.69-.7a3.9,3.9,0,0,1-3.26.46,4.55,4.55,0,0,1-2.57-2.21.27.27,0,0,0-.49.2Z"/><path d="M37.8,42.44c1.49-.45,4.09-3,2.17-4.41-.72-.52-.31.14-1.27-.27C36.65,36.88,37,36.12,37,34.32A59.93,59.93,0,0,1,37.37,26c.06-.48-.78-.6-.86-.12a49.35,49.35,0,0,0-.41,7.39c0,1.77-.31,3.84.57,5.44a.43.43,0,0,0,.38.22c1.91,0,2.07,2.06.55,3.1-.22.16-.09.55.2.46Z"/><path d="M20.4,31.43c1.3-.35,2.35-1.44,3.57-2,1.76-.83,3.36-1.7,5.37-1.71.38,0,.61-.6.21-.77-1.42-.61-3.59.14-4.86.9-.78.47-1.63.86-2.37,1.37a22.4,22.4,0,0,0-2.12,1.88.2.2,0,0,0,.2.34Z"/><path d="M44.34,26.39c1.42.09,3.35,1.49,4.49,2.28s2,2,3.17,2.91a.4.4,0,0,0,.63-.49,9.54,9.54,0,0,0-3.58-3.32c-1.18-.74-3.26-2-4.71-1.94a.28.28,0,0,0,0,.56Z"/><ellipse cx="26.47" cy="35.51" rx="1.62" ry="2.09"/><ellipse cx="47.97" cy="35.51" rx="1.62" ry="2.09"/><path d="M24.84,47.11A10.13,10.13,0,1,1,35,37,10.13,10.13,0,0,1,24.84,47.11Zm0-19.25A9.13,9.13,0,1,0,34,37,9.13,9.13,0,0,0,24.84,27.86Z" style="fill:#2c2945"/><path d="M49.72,47.11A10.13,10.13,0,1,1,59.84,37,10.13,10.13,0,0,1,49.72,47.11Zm0-19.25A9.13,9.13,0,1,0,58.84,37,9.14,9.14,0,0,0,49.72,27.86Z" style="fill:#2c2945"/><path d="M34.63,37.29l-.58-.6c.09-.08,2.06-1.93,6.07-.41l-.29.77C36.34,35.74,34.69,37.22,34.63,37.29Z" style="fill:#2c2945"/><path d="M34.25,6.21a40.42,40.42,0,0,0-13.31,4c-.12.27-.24.55-.35.84,0,0,.15,1.92.53,5.72a20.18,20.18,0,0,1,19-3.82c3.21.76,5.13,2.31,5.3,4.6C47.11,12.1,42.19,5.52,34.25,6.21Z" style="fill:#db4d28"/><path d="M75.16,47.8c2.18-3.92,5.88-9.23.46-16.15S68,28.7,67.32,19.71a20.78,20.78,0,0,0-15-18.54c-9.18-2.52-26.52-1.6-31.34,9a40.42,40.42,0,0,1,13.31-4c7.94-.69,12.86,5.89,11.17,11.31a5.79,5.79,0,0,1-.39,2.4c-1.33,3.68,1.18,8.49,8.67,14.16,6.67,5,3.71,8.24,1.3,15.4s-2.75,9.91,2,13.85c1.8,1.48,1.39,4.78,1.39,4.78a50.68,50.68,0,0,1,7.06,0c.89.13-.82-3.93.23-3.84.79.06,1.52,3.83,2.35,3.84,2.61,0,6,.28,8.13-.33S77,60.09,76,57.67,73.83,50.19,75.16,47.8Z" style="fill:#e95f33"/></g></g></svg>