<svg xmlns="http://www.w3.org/2000/svg" viewBox="0 0 60.18 94.3"><g id="Layer_2" data-name="Layer 2"><g id="OBJECTS"><path d="M3.3,28.19s.53,21-3.3,27.41c0,0,3.44,4,12.8,4.3a46.2,46.2,0,0,0,1.6-5.83s.5,5.44.43,6.38c0,0,20.38,2,31.82.37,0,0,.06-4.81.68-6,0,0,.63,4.75,1.82,5.56,0,0,6.64.19,11-2.31,0,0-3.41-12.53-3.78-16.54s1-12.83,1-12.83" style="fill:#1e1d35"/><path d="M24,59.9a37.57,37.57,0,0,1,14,0l2.92,5.21-19.59.21Z" style="fill:#549e87"/><path d="M13.47,34.06a6.13,6.13,0,0,1-6,6.3,6.28,6.28,0,0,1,0-12.55A6.14,6.14,0,0,1,13.47,34.06Z" style="fill:#f9b28f"/><path d="M59,33.91a6,6,0,1,1-6-6.25A6.13,6.13,0,0,1,59,33.91Z" style="fill:#f9b28f"/><path d="M43.83,69.2a17.89,17.89,0,0,0,2.71-2.28,17.08,17.08,0,0,0-7.76-2l-16,.14a30.51,30.51,0,0,0-3.32.5C25.11,72.49,35.69,73.72,43.83,69.2Z" style="fill:#549e87"/><path d="M52,72.63a12.31,12.31,0,0,0-5.44-5.71,17.89,17.89,0,0,1-2.71,2.28c-8.14,4.52-18.72,3.29-24.37-3.64-4,.8-10.13,2.77-10.9,7.38C7.53,79.1,6,89.28,6,89.28s25.19,11.41,48.38-.16Z" style="fill:#64ad99"/><path d="M22.78,65.06s2.09,2.57,7.76,2.55,8.24-2.69,8.24-2.69a16,16,0,0,1-3.33-5,29.46,29.46,0,0,1-10.6,2.46A8.66,8.66,0,0,1,22.78,65.06Z" style="fill:#fcceb6"/><path d="M26.58,55.77a18.25,18.25,0,0,1-1.73,6.59,29.46,29.46,0,0,0,10.6-2.46,13.84,13.84,0,0,1-1.06-4.3S29.9,56.66,26.58,55.77Z" style="fill:#f9b28f"/><path d="M51.67,32.25c0,13.12-9.6,23.78-21.54,23.82S8.47,45.51,8.42,32.4,14.19,5.26,30,5.2C47.71,5.13,51.63,19.13,51.67,32.25Z" style="fill:#fcceb6"/><path d="M3.26,34.29h0a.2.2,0,0,0,.21-.09,3,3,0,0,1,2.17-1.4c1.22-.11,1.82.69,2.4,1.62.15.24.6.16.58-.16A2.74,2.74,0,0,0,6,32a3.23,3.23,0,0,0-2,.71C3.85,32.8,3.1,34,3.26,34c-.17,0-.17.32,0,.34Z"/><path d="M5.35,35.84c.45-.21.86-.51,1.29-.75a3,3,0,0,1,1.54-.18.39.39,0,0,0,0-.78,3.56,3.56,0,0,0-1.77.24,4.48,4.48,0,0,0-.8.57c-.24.19-.26.44-.46.64a.17.17,0,0,0,.2.26Z"/><path d="M56.77,33.77c.16,0-.6-1.15-.72-1.25a3.25,3.25,0,0,0-2-.7,2.74,2.74,0,0,0-2.67,2.3.31.31,0,0,0,.58.16c.56-.92,1.16-1.74,2.38-1.64A3,3,0,0,1,56.52,34a.2.2,0,0,0,.21.09h0c.17,0,.17-.32,0-.34Z"/><path d="M54.88,35.42c-.19-.2-.22-.45-.45-.64a4.62,4.62,0,0,0-.82-.57A3.5,3.5,0,0,0,51.85,34a.4.4,0,0,0,0,.79,3,3,0,0,1,1.54.16c.44.24.84.54,1.3.74.15.07.33-.11.19-.25Z"/><path d="M12.88,91.62l.45-8.26c0-.38-.58-.38-.6,0l-.45,8.26c0,.39.58.38.6,0Z"/><path d="M47.85,91.62l-.3-8.26c0-.38-.61-.39-.6,0l.3,8.26a.3.3,0,0,0,.6,0Z"/><path d="M30.54,61.2c-3.87,0-5.17-1.3-6.33-1.3-1.88,0-3.22,2.77-4,5.3.93,2,5,4,9.26,3.91s8.09.21,11.84-3.94c0,0-.55-6.19-4.17-5.1S34.79,61.2,30.54,61.2Z" style="fill:#64ad99"/><ellipse cx="20.83" cy="33.32" rx="1.3" ry="1.67"/><path d="M42.34,33.64A1.52,1.52,0,0,1,41,35.31,1.72,1.72,0,0,1,41,32,1.51,1.51,0,0,1,42.34,33.64Z"/><path d="M29.77,40.31A2.44,2.44,0,0,0,33.12,43a.32.32,0,0,0,0-.54c-.57-.34-1.31,0-1.91-.35s-.76-1.24-1.09-1.81a.19.19,0,0,0-.35.05Z"/><path d="M32.3,38.1c1.2,1.28,3.36-1.91,3.13-3a1.63,1.63,0,0,0-1.87-1.33c-.81.09-.63.51-1.4-.2-.58-.53-.49-.71-.49-1.39A16.28,16.28,0,0,1,32,27.79a.33.33,0,0,0-.64-.18A14,14,0,0,0,31,31.49c0,.78-.2,2,.28,2.66s.74.46,1.31.56a2.14,2.14,0,0,0,.74-.2c1.26,1,1.53,1.76.81,2.39-.22.33-1.18,1.17-1.61.92-.18-.11-.35.13-.22.28Z"/><path d="M39.92,24.85a.58.58,0,0,0-.08.22.24.24,0,0,0,.24.24c2.65.26,5,3.18,5.93,5.48.13.31.7.33.66-.09-.15-1.6-1.67-3.42-2.91-4.35a10.49,10.49,0,0,0-2.43-1.45,1.51,1.51,0,0,0-.91-.1c-.28.07,0,.39-.18.05a.19.19,0,0,0-.32,0Z"/><path d="M20.83,25.58a6.07,6.07,0,0,0-3.7,1.31,16.79,16.79,0,0,0-3.22,3.76c-.21.33.28.72.54.42,1.91-2.16,3.37-4.56,6.45-5,.27,0,.2-.48-.07-.48Z"/><path d="M53.93,10.92a18.16,18.16,0,0,0-8.85-8.31C34.41-2,26.86.6,23.61,2.33,32,9.27,42.88,11.29,53.93,10.92Z" style="fill:#2c2945"/><path d="M48.25,26.36a8.1,8.1,0,0,1,3.25,1.5c3.16-.76,5.93,1.88,5.93,1.88s.17-3.32-.27-7.5a49,49,0,0,1-10-1.76A28.71,28.71,0,0,1,48.25,26.36Z" style="fill:#2c2945"/><path d="M20.85,3.39C12.78,3,5.06,8.94,2.5,15-.17,21.2,3.68,29.22,3.68,29.22c3.27-2.14,5-1.4,5-1.4A54.13,54.13,0,0,1,20,25l.83-6.5c.84,1.33,1.59,6.5,1.59,6.5H30c5,0,16.37.87,16.37.87l.6-5.4A53.91,53.91,0,0,1,20.85,3.39Z" style="fill:#2c2945"/><path d="M23.61,2.33a11.7,11.7,0,0,0-1.78,1.12c-.33,0-.65,0-1-.06a53.91,53.91,0,0,0,26.08,17L47,20c.06.15.12.3.17.45a49,49,0,0,0,10,1.76,30.76,30.76,0,0,0-3.23-11.32C42.88,11.29,32,9.27,23.61,2.33Z" style="fill:#343351"/><path d="M26.65,41.38c-.41,1.82-3.08,2.76-5.95,2.12S15.83,40.85,16.24,39s3.07-2.77,6-2.12S27.06,39.56,26.65,41.38Z" style="fill:#f9b28f"/><path d="M46.87,38.75c.56,1.78-1.26,3.94-4.07,4.83s-5.54.16-6.1-1.62S38,38,40.77,37.14,46.31,37,46.87,38.75Z" style="fill:#f9b28f"/><path d="M21.41,66.62c4.75,3.59,14.37,4.56,18.84,0,.22-.23-.08-.65-.35-.46-5.26,3.7-12.92,3.35-18.39.29-.12-.07-.21.1-.1.18Z"/><path d="M22,66c.59-1.5,1.31-2.93,2-4.39.11-.23-.19-.52-.38-.3a12.24,12.24,0,0,0-2,4.58A.19.19,0,0,0,22,66Z"/><path d="M25,67l0,0a.18.18,0,0,0,.34-.09A22.57,22.57,0,0,1,26,62.43a.25.25,0,0,0-.48-.13A15.44,15.44,0,0,0,25,67l.28-.16-.05,0A.17.17,0,0,0,25,67Z"/><path d="M28.06,67.36l0,0c.07.16.36.17.34,0-.11-1.62.1-3.26,0-4.87,0-.26-.43-.35-.48-.07a13.09,13.09,0,0,0,.15,5l.26-.19-.06,0c-.1,0-.27,0-.22.17Z"/><path d="M30.71,62.11c.07.84.16,1.68.24,2.52s0,1.58.17,2.34c.06.3.5.22.52-.06a19,19,0,0,0-.52-4.81.22.22,0,0,0-.2-.15h-.05a.16.16,0,0,0-.16.16Z"/><path d="M34.38,68v0h.33c0-1.91.1-4.25-.59-6.07a.26.26,0,0,0-.49.14c.36,2,.32,4,.75,6,0,.18.35.15.33,0v0a.16.16,0,0,0-.32,0Z"/><path d="M35.39,61.5c.25.7.52,1.4.72,2.12s.3,1.39.55,2.05c.08.22.46.21.44-.06a11.85,11.85,0,0,0-1.34-4.26.2.2,0,0,0-.37.15Z"/><path d="M37.77,60.71a.39.39,0,0,0,.08.14.22.22,0,0,0,.37-.15v0l-.41.11a7.86,7.86,0,0,1,1.07,1.92c.23.67.35,1.35.53,2a.23.23,0,0,0,.44-.06,7,7,0,0,0-1.66-4.11.22.22,0,0,0-.41.11v0l.37-.16a.37.37,0,0,0-.14-.07c-.13-.06-.29.1-.24.24Z"/></g></g></svg>