<svg xmlns="http://www.w3.org/2000/svg" viewBox="0 0 88.04 110.7"><g id="Layer_2" data-name="Layer 2"><g id="OBJECTS"><path d="M26.57,108,27,99.77c0-.39-.58-.38-.6,0L26,108c0,.38.58.38.6,0Z"/><path d="M61.54,108l-.3-8.26a.3.3,0,0,0-.6,0l.3,8.26c0,.38.61.39.6,0Z"/><path d="M53.44,93.42l-.22-12-.51,0h0l-.24,0-16,.14s-.7.06-1.79.23h0l-.26,0,.44,12.07Z" style="fill:#826459"/><path d="M61.24,102.73l6.11-2.19L67,98.08,66,91.61s-.21-2-.37-2.58c-.35-1.34-.87-2.28-3.45-4.37a15.12,15.12,0,0,0-6.46-2.93c.7,13.17,5.48,19.69,5.48,19.69Z" style="fill:#826459"/><path d="M20.48,100.57l-.78,5.11a55.3,55.3,0,0,0,6.82,2.37c0-1.91,0-3.94,0-5.32Z" style="fill:#826459"/><path d="M68.08,105.52l-.73-5-6.11,2.19v5.55A46.18,46.18,0,0,0,68.08,105.52Z" style="fill:#826459"/><path d="M31.31,82.4a19.39,19.39,0,0,0-5.92,2.51,6.88,6.88,0,0,0-3.14,4.43c-.15.89-.31,1.86-.47,2.88-.35,2.18-.72,4.55-1.05,6.69-.09.57-.17,1.12-.25,1.65l6,2.16v-1.67C30.37,95.25,31.17,86.77,31.31,82.4Z" style="fill:#826459"/><polygon points="61.05 102.8 61.24 102.73 61.24 102.73 61.05 102.8 61.05 102.8" style="fill:#826459"/><polygon points="26.72 102.8 26.5 102.72 26.5 102.73 26.72 102.8 26.72 102.8" style="fill:#826459"/><path d="M27.84,98.69a20.23,20.23,0,0,1-1.34,2.36v1.67l.22.08h0l-.22-.07c0,.4,0,.87,0,1.37,11.15,3.48,23.46,2.82,34.73-1v-.37l-.19.07h0l.19-.07v-1.31a22.09,22.09,0,0,1-2.15-4.11C48.67,99.41,38.13,101,27.84,98.69Z" style="fill:#fad8b4"/><path d="M30.39,90.74c1.45.2,2.91.36,4.37.5l-.21-5.83c-1.13-.1-2.26-.24-3.39-.44A49,49,0,0,1,30.39,90.74Z" style="fill:#fad8b4"/><path d="M33.83,81.83c-.75.14-1.62.33-2.52.57,0,.74-.07,1.61-.15,2.57,1.13.2,2.26.34,3.39.44l-.13-3.68Z" style="fill:#e95f33"/><path d="M53.4,91.2l0,2.22-18.58.38-.1-2.56c-1.46-.14-2.92-.3-4.37-.5a32.46,32.46,0,0,1-2.55,8c10.29,2.26,20.83.72,31.25-1.38A39.76,39.76,0,0,1,57,90.72Q55.2,91,53.4,91.2Z" style="fill:#e95f33"/><path d="M55.76,81.73,55,81.59c-.57-.09-1.18-.16-1.81-.21l0,2.33,2.61-.56C55.83,82.68,55.79,82.22,55.76,81.73Z" style="fill:#e95f33"/><path d="M53.26,83.71l.14,7.49q1.8-.2,3.6-.48a51.63,51.63,0,0,1-1.13-7.57Z" style="fill:#fad8b4"/><path d="M26.51,104.1c0,1.2,0,2.6,0,4l.1,0h0c7.75,2.19,21,4.5,34.53.23h0l.09,0V103.1C50,106.92,37.66,107.58,26.51,104.1Z" style="fill:#e95f33"/><path d="M27.16,50.47a6.14,6.14,0,0,1-6,6.29,6.28,6.28,0,0,1,0-12.54A6.13,6.13,0,0,1,27.16,50.47Z" style="fill:#6b4e45"/><path d="M72.66,50.32a6,6,0,1,1-6-6.26A6.14,6.14,0,0,1,72.66,50.32Z" style="fill:#6b4e45"/><path d="M36.47,81.46S38.57,84,44.23,84s8.24-2.7,8.24-2.7a15.85,15.85,0,0,1-3.33-5,29.47,29.47,0,0,1-10.6,2.47A8.51,8.51,0,0,1,36.47,81.46Z" style="fill:#826459"/><path d="M40.27,72.17a18.28,18.28,0,0,1-1.73,6.6,29.47,29.47,0,0,0,10.6-2.47A13.84,13.84,0,0,1,48.08,72S43.59,73.06,40.27,72.17Z" style="fill:#6b4e45"/><path d="M17,50.7h0a.2.2,0,0,0,.21-.08,3,3,0,0,1,2.18-1.41c1.21-.11,1.81.69,2.39,1.62.15.25.6.17.58-.15a2.73,2.73,0,0,0-2.69-2.29,3.23,3.23,0,0,0-2,.71c-.12.1-.87,1.28-.71,1.25a.18.18,0,0,0,0,.35Z"/><path d="M19,52.24c.45-.2.86-.51,1.29-.75a3.07,3.07,0,0,1,1.54-.17.4.4,0,0,0,0-.79,3.74,3.74,0,0,0-1.76.24,4.71,4.71,0,0,0-.81.57c-.24.2-.26.45-.46.65s0,.32.2.25Z"/><path d="M70.46,50.17c.15,0-.6-1.14-.72-1.25a3.24,3.24,0,0,0-2-.69,2.72,2.72,0,0,0-2.67,2.3c0,.32.42.4.58.16C66.2,49.77,66.8,49,68,49.05a2.94,2.94,0,0,1,2.19,1.39.19.19,0,0,0,.21.08h0a.18.18,0,0,0,0-.35Z"/><path d="M68.57,51.82c-.19-.2-.22-.45-.45-.64a5.22,5.22,0,0,0-.82-.57,3.61,3.61,0,0,0-1.76-.22.39.39,0,0,0,0,.78,3.07,3.07,0,0,1,1.54.16c.44.24.84.54,1.3.75a.16.16,0,0,0,.19-.26Z"/><path d="M26.57,108,27,99.77c0-.39-.58-.38-.6,0L26,108c0,.38.58.38.6,0Z"/><path d="M61.54,108l-.3-8.26a.3.3,0,0,0-.6,0l.3,8.26c0,.38.61.39.6,0Z"/><path d="M65.36,48.09c-.14-11.43-3.32-23.36-16.09-26-3.46,13.33-13,24.76-27.15,26,0,.23,0,.45,0,.68,0,9.61,5.26,17.86,12.75,21.58,11.76.31,22.52-6.06,29.69-15.19a26,26,0,0,0,.81-6.53Z" style="fill:#826459"/><path d="M49.27,22.13a27.11,27.11,0,0,0-5.62-.53C28.28,21.66,22.37,35,22.12,47.82v.3C36.25,46.89,45.81,35.46,49.27,22.13Z" style="fill:#6b4e45"/><path d="M34.86,70.38a20,20,0,0,0,9,2.1c9.88,0,18.18-7.34,20.73-17.29C57.38,64.32,46.62,70.69,34.86,70.38Z" style="fill:#6b4e45"/><path d="M35.87,49a1.52,1.52,0,0,1-1.3,1.67,1.72,1.72,0,0,1,0-3.34A1.52,1.52,0,0,1,35.87,49Z"/><ellipse cx="55.09" cy="49.04" rx="1.3" ry="1.67"/><path d="M27.33,33.55c.06-.41.11-.73.14-.93l-.28,0C27.22,32.81,27.26,33.16,27.33,33.55Z" style="fill:#feb01b"/><path d="M27.17,32.6h0C27.17,32.36,27.17,32.31,27.17,32.6Z" style="fill:#feb01b"/><path d="M42.79,57.72a2.44,2.44,0,0,0,3.34,2.66.32.32,0,0,0,0-.55c-.56-.34-1.3,0-1.9-.35s-.76-1.24-1.09-1.81a.19.19,0,0,0-.35,0Z"/><path d="M46.6,56.6c1.17-.79,4.08-4.48,1.54-5.38-2-.72-2.63,3.55-4.48-.41-.47-1-.06-3.28,0-4.4,0-1.39-.25-4.26.48-5.42a.32.32,0,0,0-.44-.44c-.78.49-.69,2.92-.74,3.66-.15,2.32-.52,5.45.11,7.71.25.9.45,1.74,1.49,1.82.66,0,.92-.63,1.47-.78.79-.94,1.49-.65,2.1.86a6.23,6.23,0,0,1-1.75,2.44c-.18.17,0,.48.26.34Z"/><path d="M37.36,57.54c-.35,1.51-2.82,2.23-5.51,1.61s-4.6-2.35-4.25-3.87,2.81-2.23,5.51-1.6S37.71,56,37.36,57.54Z" style="fill:#6b4e45"/><path d="M59.41,53.57c.78,1.33-.52,3.55-2.9,5s-5,1.45-5.75.11.52-3.55,2.91-5S58.63,52.23,59.41,53.57Z" style="fill:#6b4e45"/><path d="M29.51,45.51A33.24,33.24,0,0,0,31.75,43a25.6,25.6,0,0,1,3.71-2.45.22.22,0,0,0-.22-.39,17.32,17.32,0,0,0-3.69,2.34,9.47,9.47,0,0,0-2.36,3,.19.19,0,0,0,.25.25l.07,0a.15.15,0,0,0,0-.25Z"/><path d="M52.65,39.46a.19.19,0,0,0,.06.07c.28.26.52-.34.14-.35h-.08a.21.21,0,0,0-.11.38,32,32,0,0,1,5.7,4.32c.18.17.51-.06.35-.28-1.45-2-3.73-3.25-5.84-4.39l-.1.38h.08c.38,0,.14-.61-.14-.35a.19.19,0,0,0-.06.07.14.14,0,0,0,0,.15Z"/><path d="M67.56,41.8a15.35,15.35,0,0,0,0-16c-9-13-28-6-39-2-4,2-9,6-11,10-1.61,4,0,8.05,3.34,10.51a3.18,3.18,0,0,1,1.4.37,8.94,8.94,0,0,0,1.62-5.3,2.93,2.93,0,0,0,0-.41c-.32-3.15,3.27-1.84,3.95-5.09a2.88,2.88,0,0,0,.05-.33c.5-3.67,3.59-.75,5-3.5,0,0,5.42,4.58,8.5.42,0,0,4,3.84,7,1.19l.36-.36c.95-.73,3.7,4.81,8.53,1.78,0,0-.07,6.54,3.43,5.55,0,0-.2,5.12,4.32,5.41A8.17,8.17,0,0,0,67.56,41.8Z" style="fill:#1e1d35"/><path d="M22.16,76.52a4.75,4.75,0,0,0,2-2s3.67,5.58,8.67,2.33,7-1.67,7-1.67l.8-3.13s-7.18-1-11.56-5.83a22.24,22.24,0,0,1-3.48-5.12C24.87,66,21.64,71.3,22.16,76.52Z" style="fill:#1e1d35"/><path d="M84.23,54.72S90.48,47.63,87,42.55s-4-4.25-4-4.25,2.75-4.5-4.17-9.33c0,0,3.42-8.75-2.75-14.5s-10.7-4.84-10.7-4.84.29-5.41-4.3-7.08-7.33,1-7.33,1S50.26-1,43.24.22a14.69,14.69,0,0,0-9.85,6A11,11,0,0,0,23,6.3,10.06,10.06,0,0,0,17.56,15S8.31,16.13,5.23,22.13,3.48,32.51,3.64,32.4,0,34,.73,40.38,3,48.78,3,48.78-.77,51,.14,56.76s4.09,6,4.09,6S2.39,68,6.48,71.47A9,9,0,0,0,12,73.05s.41,4.42,5.66,4.5a8.46,8.46,0,0,0,4.52-1C21.64,71.3,24.87,66,25.58,61.05a19.36,19.36,0,0,1-1.74-4.95,6.49,6.49,0,0,1-8.47-4c-1.41-3.45,2.34-7.87,5.53-7.79C17.59,41.85,16,37.83,17.56,33.8c2-4,7-8,11-10,11-4,30-11,39,2a15.35,15.35,0,0,1,0,16A8.17,8.17,0,0,1,65,44l.19,0c4.72.16,7.09,2.44,7.49,6.26s-4,7.16-8.36,5.78a14.44,14.44,0,0,1-.86,2.44c2.79,5,7.69,10,9.07,14.75,2.82-2.09,2.13-7.07,2.13-7.07s4.42,1.58,8.5-4.17S84.23,54.72,84.23,54.72Z" style="fill:#2c2945"/><path d="M48.07,72a14.35,14.35,0,0,0,.63,3.39c.44.91,5.37,3.83,10.94.91s9.25-.83,12.5-2.75a3.47,3.47,0,0,0,.37-.26c-1.38-4.78-6.28-9.75-9.07-14.75C61.9,62,57.86,68.45,48.07,72Z" style="fill:#1e1d35"/></g></g></svg>