<svg xmlns="http://www.w3.org/2000/svg" viewBox="0 0 80.68 95.8"><g id="Layer_2" data-name="Layer 2"><g id="OBJECTS"><path d="M21.75,93.11l.44-8.26c0-.38-.58-.38-.6,0l-.44,8.26c0,.39.58.39.6,0Z"/><path d="M56.71,93.11l-.29-8.26c0-.38-.62-.38-.6,0l.29,8.26c0,.39.62.39.6,0Z"/><path d="M24.32,75.31c.25,1.12,11.13,7.25,15.06,8.37s12.5-6.94,13-8.31c.33-.91.07-5.32-.15-8.24a16.66,16.66,0,0,0-2-.45,19.72,19.72,0,0,0-2.56-.27l-16,.14s-1.08.08-2.64.37a29.21,29.21,0,0,0-4.74,1.25A67.93,67.93,0,0,0,24.32,75.31Z" style="fill:#f9b28f"/><path d="M62.16,83.16l-.94-6.46-.38-2.58a11.58,11.58,0,0,0-3.45-4.37,14.4,14.4,0,0,0-5.16-2.62c.22,2.92.48,7.33.15,8.24-.5,1.37-9.06,9.44-13,8.31s-14.81-7.25-15.06-8.37a67.93,67.93,0,0,1-.05-7.14A16.36,16.36,0,0,0,20.57,70a6.78,6.78,0,0,0-3.14,4.43c-.15.89-.31,1.86-.48,2.88-.35,2.18-.72,4.55-1,6.69l-1,6.77s25.19,11.42,48.38-.16Z" style="fill:#e95f33"/><path d="M22.34,35.55a6.15,6.15,0,0,1-6,6.3,6.28,6.28,0,0,1,0-12.55A6.14,6.14,0,0,1,22.34,35.55Z" style="fill:#f2a381"/><path d="M67.84,35.4a6,6,0,1,1-6-6.25A6.14,6.14,0,0,1,67.84,35.4Z" style="fill:#f2a381"/><path d="M31.65,66.55s2.09,2.57,7.76,2.55,8.24-2.69,8.24-2.69a15.85,15.85,0,0,1-3.33-5,29.78,29.78,0,0,1-10.61,2.47A8.86,8.86,0,0,1,31.65,66.55Z" style="fill:#f9b28f"/><path d="M35.44,57.26a18.33,18.33,0,0,1-1.73,6.6,29.78,29.78,0,0,0,10.61-2.47,13.64,13.64,0,0,1-1.07-4.3S38.76,58.15,35.44,57.26Z" style="fill:#f2a381"/><path d="M12.12,35.78h0a.2.2,0,0,0,.21-.09,3,3,0,0,1,2.18-1.4c1.22-.11,1.82.69,2.39,1.62.16.24.6.16.58-.16a2.73,2.73,0,0,0-2.69-2.29,3.23,3.23,0,0,0-2,.71c-.12.11-.87,1.28-.71,1.26-.17,0-.17.32,0,.34Z"/><path d="M14.21,37.33c.45-.21.86-.51,1.29-.75A3,3,0,0,1,17,36.4a.39.39,0,0,0,0-.78,3.5,3.5,0,0,0-1.76.24,4.55,4.55,0,0,0-.81.57c-.23.19-.26.44-.45.64a.16.16,0,0,0,.19.26Z"/><path d="M65.63,35.26c.16,0-.6-1.15-.72-1.25a3.22,3.22,0,0,0-2-.7,2.73,2.73,0,0,0-2.67,2.3.31.31,0,0,0,.57.16c.57-.92,1.17-1.74,2.38-1.64a3,3,0,0,1,2.19,1.39.2.2,0,0,0,.21.09h0c.17,0,.17-.32,0-.34Z"/><path d="M63.75,36.91c-.2-.2-.23-.45-.46-.64a4.55,4.55,0,0,0-.81-.57,3.55,3.55,0,0,0-1.77-.23.4.4,0,0,0,0,.79,3,3,0,0,1,1.55.16c.43.24.84.54,1.29.74.16.07.34-.11.2-.25Z"/><path d="M21.75,93.11l.44-8.26c0-.38-.58-.38-.6,0l-.44,8.26c0,.39.58.39.6,0Z"/><path d="M56.71,93.11l-.29-8.26c0-.38-.62-.38-.6,0l.29,8.26c0,.39.62.39.6,0Z"/><path d="M60.53,33.17c-.16-13-4.21-26.55-21.71-26.48C23.45,6.75,17.54,20.08,17.3,32.91c0,.32,0,.65,0,1,0,9.6,5.26,17.86,12.74,21.57,11.76.31,22.53-6.05,29.7-15.19a26.31,26.31,0,0,0,.81-6.53C60.54,33.55,60.53,33.36,60.53,33.17Z" style="fill:#f9b28f"/><path d="M30,55.46a19.92,19.92,0,0,0,9,2.1c9.88,0,18.19-7.34,20.74-17.29C52.56,49.41,41.79,55.77,30,55.46Z" style="fill:#f2a381"/><path d="M31.05,34.13a1.53,1.53,0,0,1-1.3,1.67,1.72,1.72,0,0,1,0-3.34A1.52,1.52,0,0,1,31.05,34.13Z"/><path d="M50.26,34.13A1.34,1.34,0,1,1,49,32.46,1.52,1.52,0,0,1,50.26,34.13Z"/><path d="M37.37,42.11a2.44,2.44,0,0,0,3.35,2.66.32.32,0,0,0,0-.55c-.56-.33-1.31,0-1.9-.35s-.76-1.23-1.09-1.81a.2.2,0,0,0-.36,0Z"/><path d="M38.5,30.3c.26.35-.07,2.36-.08,2.84s0,1.26,0,1.89a5.37,5.37,0,0,0,.21,2.49c.21.39.42.66.89.68s.51-.25.84-.35c2-.61,1.7,1.9.09,2.13-.48.07-.28.81.2.73,1.88-.3,2.72-4.33.42-4.09-1,.1-1.49,1.25-1.92-.19a6,6,0,0,1,0-1.75c0-1,.49-4.08-.33-4.7-.18-.14-.45.14-.31.32Z"/><path d="M25.5,29.76v.09a.2.2,0,0,0,.35.14A16.44,16.44,0,0,1,29,26.9c1.07-.78,2.24-1.42,3.25-2.29.22-.19-.06-.54-.3-.4a20.89,20.89,0,0,0-6.47,5.53l.38.11v-.09a.2.2,0,0,0-.39,0Z"/><path d="M47.44,25.4a.56.56,0,0,0,.11.2l.17-.42h-.09a.25.25,0,0,0-.12.46,13.7,13.7,0,0,1,3,1.91A28.66,28.66,0,0,1,52.69,30c.21.24.6-.07.43-.33a12,12,0,0,0-5.36-4.49l-.13.46h.09a.24.24,0,0,0,.17-.41.56.56,0,0,0-.2-.11.21.21,0,0,0-.25.25Z"/><path d="M33.53,43.38c-.59,1.79-3.15,2.56-5.7,1.71s-4.15-3-3.55-4.78,3.15-2.55,5.7-1.71S34.13,41.59,33.53,43.38Z" style="fill:#f2a381"/><path d="M54.93,40.78c.54,1.81-1.12,3.89-3.7,4.66s-5.11-.08-5.64-1.89,1.12-3.9,3.7-4.66S54.4,39,54.93,40.78Z" style="fill:#f2a381"/><path d="M30.19,71.51c.08.18.08.15.2.25a4.09,4.09,0,0,0,.93.32c.42.16.83.35,1.25.52a15.24,15.24,0,0,0,3.57,1,.22.22,0,0,0,.11-.42c-1.88-.79-4-1.11-5.85-1.92a.15.15,0,0,0-.21.21Z"/><path d="M42.51,73.92a20.62,20.62,0,0,0,4.81-2.52c.27-.18,0-.62-.25-.44a27,27,0,0,1-4.69,2.48c-.29.11-.17.59.13.48Z"/><path d="M73.11,18.62a24.17,24.17,0,0,0-4.5-8C63.89,5,46.84-5.62,27.84,3.67,40.3,14.65,56.7,19,73.11,18.62Z" style="fill:#feb01b"/><path d="M2.45,75.43c12.07-8.62,18.18-20.22,16.44-32.87-.35-.75-.53-1.21-.53-1.21s-6.68,1.82-7.29-5.93c-.46-5.83,5.61-6.16,6.45-6.12,0,0,10.94-7,12.23-13a13,13,0,0,1,1.36-.71,74.79,74.79,0,0,1-9.77-7.92c-.32.24-.65.46-1,.72,0,0-16.58.83-18.41,17.56C.56,38.58,5,38.68,8,46.43c0,0,3.58,8.42,0,14S-2.14,69.6.7,76.18c.13.32.28.6.42.88A4,4,0,0,1,2.45,75.43Z" style="fill:#feb01b"/><path d="M24.7,51.1a31.27,31.27,0,0,1-5.81-8.54c1.74,12.65-4.37,24.25-16.44,32.87a4,4,0,0,0-1.33,1.63c2.85,5.53,7.08,4,7.08,4s-1.4,6.51,6.67,9.67l1.85-12s.12-7.83,5.37-9.67a64.84,64.84,0,0,1,9.56-2.55s2.88-1.54,3.8-9.2A27.83,27.83,0,0,1,24.7,51.1Z" style="fill:#f79c0b"/><path d="M63.45,57.43c-4.44-2.54-5.26-7.89-5-13.5A23.59,23.59,0,0,1,43.31,57.07s.46,6.4,4.34,9.34c0,0,10.13.49,13.29,8.42.75,5.13,2.27,15.49,2.27,15.49s7.07.11,8.32-6.14l.2,0C74.09,74,74.62,63,63.45,57.43Z" style="fill:#f79c0b"/><path d="M80.36,71.1C78,59.35,71.61,61.18,71,55.47s3-10.83,3.66-20.81c.14-2.1.19-4.09.13-6A69.83,69.83,0,0,1,48.39,24.4c3.51,4.43,7.14,7.43,12.08,6.68,0,0,6.58-1.19,7.32,3.58s-4.46,8.61-8.32,6.53a18,18,0,0,1-1,2.74c-.25,5.61.57,11,5,13.5C74.62,63,74.09,74,71.73,84.15,73.19,83.91,82.52,81.93,80.36,71.1Z" style="fill:#feb01b"/><path d="M74.74,28.66a34.38,34.38,0,0,0-1.63-10C56.7,19,40.3,14.65,27.84,3.67a44.41,44.41,0,0,0-6.5,4,74.79,74.79,0,0,0,9.77,7.92c2.71-1.24,8.84-3.16,12.76,2.55,1.55,2.24,3,4.4,4.52,6.3A69.83,69.83,0,0,0,74.74,28.66Z" style="fill:#ffb640"/><path d="M15.34,39.47A3.83,3.83,0,0,0,11.11,42c-.8,2.09.32,4.53,2,5.83a4.44,4.44,0,0,0,7.18-2.45.46.46,0,0,0-.89-.24C18.76,47,17,48.47,14.93,47.75c-3.87-1.36-4.58-7.65.34-7.77.28,0,.37-.45.07-.51Z"/><path d="M62.31,40.41c3.91.11,4.55,4.59,1.89,6.87-2.11,1.81-4.51,1.15-5.77-1.15a.48.48,0,0,0-.83.49c1.8,3.26,5.63,3.54,7.95.51a5,5,0,0,0,.8-5,3.82,3.82,0,0,0-4.11-2.19c-.29.06-.21.5.07.51Z"/></g></g></svg>